<?xml version="1.0" encoding="UTF-8" standalone="no"?>
<!-- Created with Inkscape (http://www.inkscape.org/) -->

<svg
   xmlns:dc="http://purl.org/dc/elements/1.1/"
   xmlns:cc="http://creativecommons.org/ns#"
   xmlns:rdf="http://www.w3.org/1999/02/22-rdf-syntax-ns#"
   xmlns:svg="http://www.w3.org/2000/svg"
   xmlns="http://www.w3.org/2000/svg"
   xmlns:xlink="http://www.w3.org/1999/xlink"
   xmlns:sodipodi="http://sodipodi.sourceforge.net/DTD/sodipodi-0.dtd"
   xmlns:inkscape="http://www.inkscape.org/namespaces/inkscape"
   width="361.24442mm"
   height="361.24442mm"
   viewBox="0 0 361.24442 361.24442"
   version="1.1"
   id="svg8"
   inkscape:version="0.92.3 (2405546, 2018-03-11)"
   sodipodi:docname="difuse cat.svg"
   inkscape:export-filename="./../assets/cat/cat-difuse.png"
   inkscape:export-xdpi="96"
   inkscape:export-ydpi="96">
  <defs
     id="defs2" />
  <sodipodi:namedview
     id="base"
     pagecolor="#ffffff"
     bordercolor="#666666"
     borderopacity="1.0"
     inkscape:pageopacity="0.0"
     inkscape:pageshadow="2"
     inkscape:zoom="0.5"
     inkscape:cx="452.92939"
     inkscape:cy="898.49834"
     inkscape:document-units="mm"
     inkscape:current-layer="g859"
     showgrid="false"
     inkscape:snap-global="false"
     inkscape:window-width="1366"
     inkscape:window-height="715"
     inkscape:window-x="-8"
     inkscape:window-y="-8"
     inkscape:window-maximized="1" />
  <metadata
     id="metadata5">
    <rdf:RDF>
      <cc:Work
         rdf:about="">
        <dc:format>image/svg+xml</dc:format>
        <dc:type
           rdf:resource="http://purl.org/dc/dcmitype/StillImage" />
        <dc:title></dc:title>
      </cc:Work>
    </rdf:RDF>
  </metadata>
  <g
     inkscape:groupmode="layer"
     id="layer2"
     inkscape:label="bg"
     sodipodi:insensitive="true">
    <g
       id="g843">
      <rect
         y="0"
         x="0"
         height="6.8035712"
         width="6.8035712"
         id="rect837"
         style="opacity:1;fill:#782121;fill-opacity:1;fill-rule:nonzero;stroke:none;stroke-width:10.58333302;stroke-linecap:round;stroke-linejoin:miter;stroke-miterlimit:4;stroke-dasharray:none;stroke-dashoffset:0;stroke-opacity:1;paint-order:stroke markers fill" />
      <rect
         style="opacity:1;fill:#782121;fill-opacity:1;fill-rule:nonzero;stroke:none;stroke-width:10.58333302;stroke-linecap:round;stroke-linejoin:miter;stroke-miterlimit:4;stroke-dasharray:none;stroke-dashoffset:0;stroke-opacity:1;paint-order:stroke markers fill"
         id="rect839"
         width="6.8035712"
         height="6.8035712"
         x="354.44086"
         y="354.44086" />
      <rect
         style="opacity:1;fill:#ffffd6;fill-opacity:1;fill-rule:nonzero;stroke:none;stroke-width:10.58333302;stroke-linecap:round;stroke-linejoin:miter;stroke-miterlimit:4;stroke-dasharray:none;stroke-dashoffset:0;stroke-opacity:1;paint-order:stroke markers fill"
         id="rect847"
         width="189.74405"
         height="387.80356"
         x="-8.3154764"
         y="-8.4162912" />
      <path
         style="opacity:1;fill:#000000;fill-opacity:1;fill-rule:nonzero;stroke:none;stroke-width:10.58333302;stroke-linecap:round;stroke-linejoin:miter;stroke-miterlimit:4;stroke-dasharray:none;stroke-dashoffset:0;stroke-opacity:1;paint-order:stroke markers fill"
         d="m 133.04762,69.068839 10.58333,-7.181548 20.03274,1.511906 14.36309,11.339285 3.02381,21.922618 -5.29166,13.98512 -12.47322,4.91369 -19.27678,-6.04762 -12.47322,-17.386905 -1.88988,-15.875 z"
         id="path881"
         inkscape:connector-curvature="0" />
      <ellipse
         style="opacity:1;fill:#000000;fill-opacity:1;fill-rule:nonzero;stroke:none;stroke-width:10.58333302;stroke-linecap:round;stroke-linejoin:miter;stroke-miterlimit:4;stroke-dasharray:none;stroke-dashoffset:0;stroke-opacity:1;paint-order:stroke markers fill"
         id="path883"
         cx="98.273804"
         cy="303.79205"
         rx="8.6934528"
         ry="17.008928" />
    </g>
    <use
       x="0"
       y="0"
       xlink:href="#g843"
       id="use845"
       transform="matrix(-1,0,0,1,361.24443,0)"
       width="100%"
       height="100%" />
  </g>
  <g
     inkscape:label="details"
     id="g859"
     inkscape:groupmode="layer">
    <g
       id="g855">
      <path
         style="opacity:1;fill:#ff7f2a;fill-opacity:1;fill-rule:nonzero;stroke:none;stroke-width:28.28427124;stroke-linecap:round;stroke-linejoin:miter;stroke-miterlimit:4;stroke-dasharray:none;stroke-dashoffset:0;stroke-opacity:1;paint-order:stroke markers fill"
         d="m 581.40823,470.57631 c -8.38937,0.16773 -16.84175,2.8938 -23.90904,7.35143 -4.28883,3.63277 -6.38758,9.24125 -11.16594,12.4517 -3.63367,3.45935 -8.36137,5.35216 -12.40337,8.12897 -3.49155,4.5213 -6.13319,9.70193 -10.12323,13.89631 -2.95156,2.53357 -1.16863,7.75321 2.9472,7.12907 5.47651,0.24785 11.8139,-1.82366 16.76064,1.15733 0.6661,2.60519 -2.34133,5.25168 -2.92372,7.89142 -2.74699,8.54295 -5.27129,17.25267 -8.90098,25.49314 -0.61258,3.87084 4.27046,4.59568 6.64405,2.55987 8.12175,-3.11354 16.71446,-6.5458 25.49616,-6.23213 3.06808,2.97094 2.13407,8.1887 3.31766,11.99157 1.34027,6.32549 1.24257,13.16746 3.82108,19.13356 4.10817,3.28193 6.96361,-2.69534 9.57495,-5.08371 3.41638,-3.05341 8.16317,-7.60973 13.10633,-5.81982 5.26001,7.33252 5.55261,16.57813 8.28173,24.96788 1.69538,4.82312 2.19733,10.60982 5.86455,14.40913 5.36932,2.16128 6.29964,-5.60605 10.18952,-7.45915 2.1021,-1.98552 5.36568,-2.9284 7.25475,-0.14225 7.0758,6.67392 16.12742,10.9529 25.25697,13.97917 5.56387,-0.0513 5.57416,-7.21654 6.12227,-11.2709 1.51711,-17.22862 2.76826,-34.62607 1.53299,-51.90053 -3.14809,-14.35685 -8.91253,-28.23411 -18.03096,-39.86053 -8.37521,-10.98756 -14.58833,-24.30025 -26.1135,-32.47152 -9.82083,-5.99915 -20.7782,-11.19649 -32.60011,-10.30001 z"
         id="path1273"
         inkscape:connector-curvature="0"
         transform="scale(0.26458333)" />
      <path
         style="opacity:1;fill:#ff7f2a;fill-opacity:1;fill-rule:nonzero;stroke:none;stroke-width:7.48354673;stroke-linecap:round;stroke-linejoin:miter;stroke-miterlimit:4;stroke-dasharray:none;stroke-dashoffset:0;stroke-opacity:1;paint-order:stroke markers fill"
         d="m 62.399706,224.94235 c -2.374022,0.29668 -4.51135,1.69699 -6.280259,3.24702 -3.399893,3.17117 -4.858186,7.72839 -6.888623,11.78205 -2.105025,4.26986 -2.737918,9.14132 -2.585664,13.85676 0.215424,3.93274 2.717482,7.33615 2.723748,11.30133 0.479065,1.93545 1.007562,3.90054 1.878195,5.69706 0.874173,0.93924 1.717466,-0.3229 2.072227,-1.06661 0.806032,-1.05802 2.008487,-2.56472 3.504258,-1.75615 2.28255,1.24288 3.48134,3.664 4.769165,5.80819 0.199009,0.90455 1.537213,1.52124 1.99453,0.47717 0.978683,-2.1472 1.515078,-4.91167 3.819969,-6.0588 1.089559,-0.29646 1.541865,1.13657 1.995125,1.80803 0.788921,1.20804 1.051121,3.10722 2.544699,3.66612 1.560682,0.10875 2.027357,-1.84872 2.822064,-2.82831 1.136724,-1.98583 3.051255,-3.66792 3.191447,-6.0869 0.523015,-2.44666 1.71124,-4.84286 1.17257,-7.41019 -0.525087,-4.65476 -1.81441,-9.15846 -2.732924,-13.74058 -0.833223,-3.16123 -1.496282,-6.40645 -2.764975,-9.42653 -2.010659,-2.74975 -4.110024,-5.52905 -6.782329,-7.67282 -1.288172,-0.92421 -2.86167,-1.53867 -4.453223,-1.59684 z"
         id="path1130"
         inkscape:connector-curvature="0" />
      <path
         style="opacity:1;fill:#ff7f2a;fill-opacity:1;fill-rule:nonzero;stroke:none;stroke-width:5.29166651;stroke-linecap:round;stroke-linejoin:miter;stroke-miterlimit:4;stroke-dasharray:none;stroke-dashoffset:0;stroke-opacity:1;paint-order:stroke markers fill"
         d="m 93.321149,148.60994 c -1.677798,-0.21458 -3.497013,-0.75035 -5.080797,0.14155 -1.538215,0.71003 -3.333644,0.39264 -4.89519,0.99839 -0.690418,0.6593 0.368023,1.21153 0.610118,1.77265 0.627027,1.49682 -0.763024,2.69896 -1.71873,3.63869 -0.430372,0.50035 -1.560773,0.97846 -1.026418,1.76528 0.841201,0.57917 2.023901,0.9011 2.270812,2.05422 0.42178,1.39314 -0.328679,2.77006 -0.63245,4.08006 0.438341,1.0735 2.019514,0.2761 2.659634,1.16628 1.122629,1.28154 1.316198,3.16371 0.935941,4.77502 0.133727,0.88375 1.313664,0.80105 1.990175,1.07671 1.120667,0.30118 2.619265,0.37701 3.039198,1.69799 0.627628,1.29084 0.591922,3.06031 1.84728,3.95927 1.416884,0.4697 3.004136,0.59904 4.463238,0.26869 0.489144,-0.15659 0.887434,-0.7163 1.440932,-0.33699 2.097548,0.67504 4.045208,1.77 6.155958,2.39305 0.82895,0.14699 1.50036,-0.55235 1.97478,-1.12157 1.71686,-0.55896 3.52718,0.0861 5.0798,0.73776 0.96394,-0.10466 0.6178,-1.32897 0.81949,-1.99598 0.087,-0.90189 1.22256,-0.51166 1.80497,-0.47392 0.87502,0.19411 1.94502,0.37316 2.57188,-0.44878 1.00635,-0.84815 0.7575,-2.51237 1.98963,-3.1459 0.83361,-0.91752 0.66628,-2.41354 0.0674,-3.41971 -0.92466,-1.73885 -1.65743,-3.63914 -2.96305,-5.13675 -2.48631,-2.2951 -5.69773,-3.57277 -8.03925,-6.05553 -2.26015,-2.41364 -5.28386,-3.90504 -8.13118,-5.50083 -2.321413,-1.1358 -4.656713,-2.45914 -7.234196,-2.88965 z"
         id="path1120"
         inkscape:connector-curvature="0" />
      <path
         style="opacity:1;fill:#765e3a;fill-opacity:1;fill-rule:nonzero;stroke:none;stroke-width:10;stroke-linecap:round;stroke-linejoin:miter;stroke-miterlimit:4;stroke-dasharray:none;stroke-dashoffset:0;stroke-opacity:1;paint-order:stroke markers fill"
         d="m 475.47373,1170.9578 c -2.47455,0.2594 -4.39158,2.6705 -4.68408,5.022 -1.42555,1.8795 -0.082,4.3311 0.29736,6.3574 0.60587,3.5633 3.79282,6.3039 7.29444,6.7725 2.32638,-0.4915 3.3687,-3.0772 4.11914,-5.0933 1.18161,-3.2608 0.58853,-7.0791 -1.30957,-9.9404 -1.35699,-1.7358 -3.44311,-3.1593 -5.71729,-3.1182 z"
         id="path1114"
         inkscape:connector-curvature="0"
         transform="scale(0.26458333)" />
      <path
         style="opacity:1;fill:#765e3a;fill-opacity:1;fill-rule:nonzero;stroke:none;stroke-width:10;stroke-linecap:round;stroke-linejoin:miter;stroke-miterlimit:4;stroke-dasharray:none;stroke-dashoffset:0;stroke-opacity:1;paint-order:stroke markers fill"
         d="m 488.25156,1152.1976 c -2.29222,-0.075 -4.24008,1.5442 -4.91211,3.6831 -1.29295,3.046 -2.49778,6.6151 -0.88394,9.7922 1.56965,3.4703 3.68792,6.6829 5.04312,10.2439 0.79594,1.9576 2.138,4.1909 4.53662,4.2104 3.06123,0.4755 5.33588,-2.3603 6.01172,-5.0459 1.30658,-4.6965 1.83982,-10.0724 -0.73681,-14.4589 -1.6957,-3.3148 -4.08088,-6.5836 -7.5044,-8.2266 -0.50266,-0.1508 -1.03047,-0.2085 -1.5542,-0.1982 z"
         id="path1112"
         inkscape:connector-curvature="0"
         transform="scale(0.26458333)" />
      <path
         style="opacity:1;fill:#765e3a;fill-opacity:1;fill-rule:nonzero;stroke:none;stroke-width:10;stroke-linecap:round;stroke-linejoin:miter;stroke-miterlimit:4;stroke-dasharray:none;stroke-dashoffset:0;stroke-opacity:1;paint-order:stroke markers fill"
         d="m 509.71152,1148.5071 c -1.48747,-0.04 -3.25206,0.1274 -3.95361,1.6709 -1.42508,1.9224 -2.28425,4.2161 -2.12782,6.6315 -0.21554,4.8848 -0.11212,9.8136 1.12196,14.5741 0.56664,2.5923 1.12028,6.1534 4.18213,6.8911 2.41631,0.5158 5.20715,-0.048 6.66943,-2.2017 3.47151,-3.8291 4.51158,-9.2733 3.70899,-14.2729 -0.72319,-3.9645 -1.2486,-8.3985 -4.08594,-11.4956 -1.43974,-1.5292 -3.49626,-1.9417 -5.51514,-1.7974 z"
         id="path1110"
         inkscape:connector-curvature="0"
         transform="scale(0.26458333)" />
      <path
         style="opacity:1;fill:#765e3a;fill-opacity:1;fill-rule:nonzero;stroke:none;stroke-width:10;stroke-linecap:round;stroke-linejoin:miter;stroke-miterlimit:4;stroke-dasharray:none;stroke-dashoffset:0;stroke-opacity:1;paint-order:stroke markers fill"
         d="m 530.72373,1166.4227 c -1.17449,1.7105 -3.94296,-0.2269 -5.01074,1.7543 -0.58052,0.7606 -0.79145,1.8014 -1.1084,2.6148 -1.96535,0.1552 -1.95388,2.7402 -2.55518,4.1455 -0.64267,2.9427 -1.43706,6.1494 -0.4707,9.0952 1.5402,2.9948 5.505,3.1536 8.42383,2.6211 3.00755,-0.484 5.47049,-2.6209 6.69655,-5.3628 2.15361,-3.9174 2.59932,-9.5767 -1.04372,-12.7827 -1.3054,-1.0658 -2.83274,-2.0722 -4.49805,-2.3403 -0.14453,0.085 -0.28906,0.1699 -0.43359,0.2549 z"
         id="path1108"
         inkscape:connector-curvature="0"
         transform="scale(0.26458333)" />
      <path
         style="opacity:1;fill:#765e3a;fill-opacity:1;fill-rule:nonzero;stroke:none;stroke-width:10;stroke-linecap:round;stroke-linejoin:miter;stroke-miterlimit:4;stroke-dasharray:none;stroke-dashoffset:0;stroke-opacity:1;paint-order:stroke markers fill"
         d="m 504.97861,1183.7571 c -3.31655,0.1461 -6.96768,-0.039 -9.70947,2.1826 -3.77076,2.6963 -6.03366,7.1577 -10.18359,9.3433 -2.5278,0.6308 -4.85427,2.2797 -5.77051,4.7993 -1.68168,4.6963 -1.19022,10.6784 2.56299,14.2759 4.59,4.1324 11.3458,4.4595 17.15371,3.487 5.13813,-1.0745 10.19937,-2.6293 15.06992,-4.5827 4.73751,-2.762 5.93965,-9.2114 4.32688,-14.1336 -0.48628,-2.6973 -2.60667,-4.4864 -4.22288,-6.5153 -2.31639,-2.95 -3.4244,-7.3817 -7.32617,-8.6758 -0.61526,-0.1834 -1.26434,-0.19 -1.90088,-0.1807 z"
         id="path1106"
         inkscape:connector-curvature="0"
         transform="scale(0.26458333)" />
      <path
         style="opacity:1;fill:#765e3a;fill-opacity:1;fill-rule:nonzero;stroke:none;stroke-width:2.64583325;stroke-linecap:round;stroke-linejoin:miter;stroke-miterlimit:4;stroke-dasharray:none;stroke-dashoffset:0;stroke-opacity:1;paint-order:stroke markers fill"
         d="m 20.896795,342.71288 c -0.786164,0.0111 -1.038061,0.89662 -1.543317,1.34152 -0.603949,0.68784 -1.338066,1.2822 -2.229838,1.54175 -0.775895,0.23564 -1.539926,0.62005 -1.995873,1.31866 -0.727197,1.04788 -1.202933,2.41467 -0.851369,3.68377 0.384482,1.11895 1.684691,1.52664 2.757454,1.5902 1.227024,0.0828 2.557638,-0.0855 3.511026,-0.93475 0.317922,-0.26622 0.676103,-0.59142 1.130551,-0.43079 0.385416,0.0417 0.661361,0.35171 0.707451,0.7272 0.358006,0.6027 1.098238,0.82611 1.693354,1.12094 0.97583,0.44939 2.081955,0.53805 3.135808,0.39512 1.50959,-0.47987 2.301274,-2.27568 1.931148,-3.76462 -0.258596,-1.01481 -0.393922,-2.12204 -1.022545,-2.9904 -0.586632,-0.65625 -1.406563,-1.06275 -2.199609,-1.41412 -0.800538,-0.21862 -1.731975,-0.1456 -2.381121,-0.75086 -0.770045,-0.63312 -1.581555,-1.41428 -2.64312,-1.43362 z"
         id="path1050"
         inkscape:connector-curvature="0" />
      <path
         style="opacity:1;fill:#765e3a;fill-opacity:1;fill-rule:nonzero;stroke:none;stroke-width:2.64583325;stroke-linecap:round;stroke-linejoin:miter;stroke-miterlimit:4;stroke-dasharray:none;stroke-dashoffset:0;stroke-opacity:1;paint-order:stroke markers fill"
         d="m 23.117073,335.29407 c -0.374998,0.0265 -0.909955,-0.0236 -0.967188,0.47162 -0.444651,1.10816 -0.452555,2.32847 -0.578842,3.50089 -0.101166,1.03814 0.294658,2.07976 0.921649,2.89168 0.623159,0.66969 1.809723,0.70279 2.398691,-0.0307 0.897034,-1.07897 1.033378,-2.56929 1.045931,-3.91994 0.02883,-1.49812 -1.288803,-2.95822 -2.820241,-2.91351 z"
         id="path1052"
         inkscape:connector-curvature="0" />
      <path
         style="opacity:1;fill:#765e3a;fill-opacity:1;fill-rule:nonzero;stroke:none;stroke-width:2.64583325;stroke-linecap:round;stroke-linejoin:miter;stroke-miterlimit:4;stroke-dasharray:none;stroke-dashoffset:0;stroke-opacity:1;paint-order:stroke markers fill"
         d="m 29.036608,339.96913 c -0.534559,0.12575 -0.648091,0.78253 -0.844005,1.21335 -0.551333,-0.0452 -0.57999,0.63802 -0.702024,1.0197 -0.142311,0.75618 -0.403416,1.73096 0.266263,2.3217 0.439106,0.47738 1.353519,0.5984 1.730256,-0.019 0.479711,-0.71319 0.479444,-1.62915 0.518959,-2.45785 -0.09005,-0.69011 -0.186454,-1.47788 -0.696338,-1.99419 -0.07766,-0.0582 -0.175458,-0.0923 -0.273111,-0.0837 z"
         id="path1054"
         inkscape:connector-curvature="0" />
      <path
         style="opacity:1;fill:#765e3a;fill-opacity:1;fill-rule:nonzero;stroke:none;stroke-width:2.64583325;stroke-linecap:round;stroke-linejoin:miter;stroke-miterlimit:4;stroke-dasharray:none;stroke-dashoffset:0;stroke-opacity:1;paint-order:stroke markers fill"
         d="m 16.327177,335.54032 c -0.43225,-0.0356 -0.748096,0.35253 -1.038179,0.54983 -0.231268,-0.33642 -0.637399,-0.0278 -0.733935,0.26122 -0.472081,0.93073 -0.54756,2.02348 -0.486017,3.0497 0.16238,1.10249 0.890746,2.00604 1.490865,2.90872 0.413847,0.60629 1.002024,1.27114 1.811776,1.20407 1.092836,0.007 2.11544,-0.89157 2.20914,-1.99131 0.39702,-1.75996 -0.141256,-3.67792 -1.309453,-5.03513 -0.521247,-0.4818 -1.227968,-0.8854 -1.944197,-0.9471 z"
         id="path1056"
         inkscape:connector-curvature="0" />
      <path
         style="opacity:1;fill:#765e3a;fill-opacity:1;fill-rule:nonzero;stroke:none;stroke-width:2.64583325;stroke-linecap:round;stroke-linejoin:miter;stroke-miterlimit:4;stroke-dasharray:none;stroke-dashoffset:0;stroke-opacity:1;paint-order:stroke markers fill"
         d="m 12.863306,341.29088 c -0.467711,-0.0119 -0.561389,0.55232 -0.45992,0.90718 0.09693,0.8038 -0.07929,1.75111 0.571282,2.37762 0.383313,0.38735 0.916406,0.79272 1.488928,0.72155 0.474405,-0.21691 0.427478,-0.85448 0.450101,-1.2953 -0.07625,-0.94641 -0.579429,-1.86841 -1.319041,-2.46057 -0.213144,-0.15018 -0.467225,-0.25477 -0.73135,-0.25048 z"
         id="path1058"
         inkscape:connector-curvature="0" />
      <rect
         style="opacity:1;fill:#782121;fill-opacity:1;fill-rule:nonzero;stroke:none;stroke-width:10.58333302;stroke-linecap:round;stroke-linejoin:miter;stroke-miterlimit:4;stroke-dasharray:none;stroke-dashoffset:0;stroke-opacity:1;paint-order:stroke markers fill"
         id="rect849"
         width="6.8035712"
         height="6.8035712"
         x="0"
         y="0" />
      <rect
         y="354.44086"
         x="354.44086"
         height="6.8035712"
         width="6.8035712"
         id="rect851"
         style="opacity:1;fill:#782121;fill-opacity:1;fill-rule:nonzero;stroke:none;stroke-width:10.58333302;stroke-linecap:round;stroke-linejoin:miter;stroke-miterlimit:4;stroke-dasharray:none;stroke-dashoffset:0;stroke-opacity:1;paint-order:stroke markers fill" />
      <path
         style="opacity:1;fill:#000000;fill-opacity:1;fill-rule:nonzero;stroke:none;stroke-width:10.58333302;stroke-linecap:round;stroke-linejoin:miter;stroke-miterlimit:4;stroke-dasharray:none;stroke-dashoffset:0;stroke-opacity:1;paint-order:stroke markers fill"
         id="path1006"
         d="m 15.264804,335.96495 c -0.113875,0.0773 -0.22134,0.15737 -0.315087,0.25953 -0.09331,0.102 -0.184469,0.20751 -0.241699,0.33438 -0.04303,0.0853 -0.07749,0.15184 -0.120477,0.27593 -0.04199,0.15042 -0.09028,0.29877 -0.124745,0.45117 -0.04154,0.1519 -0.07872,0.30218 -0.09543,0.45879 -0.03492,0.17425 -0.04649,0.35039 -0.05882,0.52726 -0.0092,0.18897 -0.01542,0.37772 -0.01829,0.56684 -0.0037,0.17256 -0.0024,0.34513 0.01399,0.51703 0.01354,0.1761 0.03898,0.34229 0.101435,0.50776 0.06586,0.20513 0.155956,0.4005 0.257786,0.58997 0.117882,0.19129 0.230749,0.38557 0.341646,0.58102 0.115617,0.20132 0.241634,0.39627 0.367372,0.59134 0.156461,0.20125 0.303987,0.40908 0.450274,0.61775 0.12612,0.19206 0.25161,0.3823 0.418819,0.54113 0.152995,0.13991 0.307845,0.28202 0.49796,0.36859 0.195477,0.0923 0.403206,0.12097 0.616232,0.13512 0.244771,0.0275 0.467729,-0.0346 0.691468,-0.12533 0.230385,-0.12954 0.46826,-0.25233 0.675018,-0.4182 0.164482,-0.15555 0.299467,-0.3333 0.400747,-0.53509 0.08485,-0.17577 0.138296,-0.36743 0.189299,-0.55833 0.07024,-0.23958 0.08413,-0.4895 0.124755,-0.73459 0.03063,-0.24794 0.04545,-0.49696 0.05404,-0.74649 0.02406,-0.22 -0.02329,-0.43402 -0.0682,-0.64778 -0.06087,-0.24718 -0.12694,-0.49303 -0.191906,-0.73914 -0.06364,-0.21773 -0.12503,-0.43521 -0.2152,-0.64365 -0.08009,-0.20556 -0.185445,-0.40079 -0.287695,-0.59616 -0.104081,-0.19362 -0.232037,-0.37248 -0.35868,-0.55161 -0.09758,-0.1475 -0.198605,-0.28797 -0.32194,-0.41484 -0.111348,-0.11236 -0.254803,-0.18221 -0.387687,-0.26492 -0.13561,-0.0824 -0.26723,-0.16987 -0.407586,-0.24403 -0.129372,-0.0566 -0.245727,-0.1379 -0.377873,-0.18799 -0.114688,-0.0525 -0.234777,-0.0825 -0.359482,-0.0971 -0.12418,-0.01 -0.251376,-0.01 -0.371529,0.0265 -0.06784,0.034 -0.152249,0.0306 -0.217948,0.0684 -0.01069,0.006 -0.01959,0.0151 -0.02938,0.0225 -0.0171,0.01 -0.03419,0.0196 -0.05129,0.0293 -0.08485,0.082 -0.165717,0.17053 -0.237513,0.26438 -0.07448,0.0756 -0.03743,0.038 -0.111173,0.11281 -0.368234,0.2544 -0.593081,-0.0711 -0.224847,-0.32546 v 0 c 0.06237,-0.0661 0.03256,-0.0323 0.08953,-0.10128 0.103247,-0.11631 0.217345,-0.22471 0.349114,-0.30845 0.117573,-0.065 0.242226,-0.10774 0.369825,-0.14862 0.165803,-0.0459 0.332057,-0.0488 0.502181,-0.0238 0.149254,0.019 0.295913,0.0516 0.433673,0.11414 0.147083,0.0535 0.277251,0.13547 0.41885,0.20079 0.148815,0.0773 0.292416,0.16095 0.436266,0.2472 0.155477,0.0988 0.316419,0.18846 0.450237,0.31755 0.133505,0.13785 0.264733,0.27766 0.375931,0.43461 0.138614,0.19029 0.273874,0.38304 0.391911,0.58698 0.110595,0.20418 0.208075,0.41629 0.300403,0.62923 0.08953,0.22415 0.18795,0.44537 0.254043,0.67799 0.06871,0.25022 0.123473,0.5038 0.18663,0.75542 0.06015,0.24005 0.09299,0.48892 0.09614,0.73644 -0.004,0.26371 -0.0099,0.52818 -0.0491,0.78949 -0.03121,0.26246 -0.05737,0.52723 -0.124412,0.78351 -0.0838,0.28432 -0.149416,0.57668 -0.306717,0.83269 -0.138723,0.23641 -0.302106,0.45731 -0.513996,0.63413 -0.240938,0.18468 -0.498411,0.35124 -0.780477,0.46628 -0.27804,0.0966 -0.561154,0.15298 -0.856968,0.11631 -0.25347,-0.0257 -0.506607,-0.0678 -0.738013,-0.18032 -0.223385,-0.10826 -0.415546,-0.26021 -0.598493,-0.42738 -0.183926,-0.17666 -0.336866,-0.37489 -0.475831,-0.58854 -0.146453,-0.21243 -0.305924,-0.4155 -0.44991,-0.62973 -0.133982,-0.19889 -0.260696,-0.40309 -0.377764,-0.61235 -0.112585,-0.19535 -0.218884,-0.39352 -0.344102,-0.5814 -0.120272,-0.20391 -0.214995,-0.42182 -0.27829,-0.65032 -0.06363,-0.18981 -0.113567,-0.37983 -0.120674,-0.58126 -0.02773,-0.18629 -0.02651,-0.37124 -0.02431,-0.5593 -0.0017,-0.19532 -0.0057,-0.39098 0.005,-0.58606 0.01055,-0.1819 0.03611,-0.36205 0.07514,-0.54009 0.0143,-0.16727 0.03999,-0.33385 0.08843,-0.49496 0.03084,-0.16409 0.08396,-0.32051 0.141144,-0.47701 0.05666,-0.229 0.12419,-0.32036 0.215527,-0.51695 0.08464,-0.14888 0.190502,-0.28236 0.315751,-0.39954 0.109794,-0.10523 0.225526,-0.20609 0.371166,-0.25808 0.368665,-0.18761 0.534488,0.13825 0.165823,0.32586 z"
         inkscape:connector-curvature="0" />
      <path
         style="opacity:1;fill:#000000;fill-opacity:1;fill-rule:nonzero;stroke:none;stroke-width:10.58333302;stroke-linecap:round;stroke-linejoin:miter;stroke-miterlimit:4;stroke-dasharray:none;stroke-dashoffset:0;stroke-opacity:1;paint-order:stroke markers fill"
         id="path1008"
         d="m 22.560907,335.50071 c -0.01118,0.0217 -0.02172,0.0437 -0.03353,0.065 -0.04475,0.0808 -0.09256,0.15965 -0.133711,0.24254 -0.04943,0.0996 -0.07958,0.10528 -0.03757,0.0943 -0.09719,0.21254 -0.157728,0.43886 -0.217283,0.66405 -0.06607,0.27135 -0.09675,0.54864 -0.131142,0.82513 -0.03382,0.3389 -0.06663,0.67786 -0.112153,1.01544 -0.04575,0.31965 -0.077,0.64064 -0.09386,0.96301 -0.01988,0.27789 -0.0079,0.55401 0.0373,0.82846 0.03601,0.25985 0.136068,0.5035 0.230915,0.74602 0.09176,0.24008 0.207889,0.4704 0.330725,0.69591 0.114068,0.18634 0.248966,0.35671 0.420424,0.49241 0.181744,0.11941 0.379403,0.21053 0.582732,0.28617 0.192574,0.0657 0.391452,0.0534 0.586507,0.008 0.222371,-0.0604 0.417606,-0.19177 0.595197,-0.33501 0.198433,-0.17839 0.340575,-0.40376 0.478092,-0.62974 0.133506,-0.23408 0.228922,-0.48051 0.317442,-0.73366 0.07796,-0.27091 0.15057,-0.5447 0.196568,-0.82301 0.03172,-0.27038 0.09142,-0.53661 0.109843,-0.80833 0.01178,-0.26411 0.02472,-0.52875 0.02252,-0.79317 0.0118,-0.24019 -0.02366,-0.47588 -0.06991,-0.71057 -0.05093,-0.20137 -0.118177,-0.39626 -0.220128,-0.57748 -0.08745,-0.16457 -0.193564,-0.3185 -0.305996,-0.46685 -0.08057,-0.13237 -0.185,-0.24482 -0.299765,-0.34785 -0.117082,-0.0854 -0.226715,-0.17992 -0.338811,-0.27165 -0.119365,-0.0806 -0.245547,-0.14189 -0.377925,-0.19727 -0.126504,-0.0528 -0.250114,-0.10877 -0.384727,-0.13706 -0.129496,-0.0214 -0.256045,-0.0552 -0.386443,-0.072 -0.118957,-0.0214 -0.23486,0.009 -0.352457,0.0254 -0.145957,0.008 -0.288499,0.0373 -0.432543,0.0597 -0.106578,0.0201 -0.179545,0.097 -0.262498,0.15894 -0.04598,0.0534 -0.0941,0.10853 -0.131411,0.16933 -0.0092,0.0148 -0.03527,0.0328 -0.02446,0.0466 0.01022,0.013 0.01973,-0.0267 0.02959,-0.04 -0.0078,0.0246 -0.01562,0.0491 -0.02342,0.0737 -0.05284,0.4577 -0.457402,0.411 -0.404562,-0.0467 v 0 c 0.01218,-0.0297 0.02436,-0.0594 0.03655,-0.0891 0.09619,-0.1933 0.173121,-0.31985 0.3395,-0.45661 0.124153,-0.098 0.257172,-0.17937 0.413879,-0.21387 0.14663,-0.0254 0.292832,-0.0384 0.440817,-0.0511 0.146445,-0.0212 0.293034,-0.046 0.44088,-0.0193 0.138304,0.0188 0.2731,0.0525 0.410582,0.0752 0.15586,0.0323 0.302511,0.0871 0.448649,0.14951 0.158965,0.068 0.318147,0.1387 0.45407,0.248 0.117038,0.0919 0.226672,0.19193 0.351656,0.27366 0.135433,0.11237 0.255745,0.24466 0.362851,0.38404 0.122845,0.15777 0.22808,0.32642 0.335806,0.49466 0.13118,0.20778 0.223644,0.43162 0.287719,0.66911 0.06695,0.25715 0.105637,0.52459 0.102461,0.79055 -0.0044,0.2735 0.0062,0.54753 -0.01661,0.82063 -0.02502,0.28175 -0.05279,0.56256 -0.09754,0.84198 -0.05177,0.29472 -0.119265,0.58616 -0.185962,0.87781 -0.106034,0.362 -0.259072,0.70903 -0.460561,1.02849 -0.168417,0.25792 -0.357106,0.50221 -0.598395,0.69696 -0.232853,0.1682 -0.479357,0.31454 -0.764397,0.3737 -0.259538,0.0385 -0.527243,0.0437 -0.778933,-0.0413 -0.241275,-0.0895 -0.475657,-0.19632 -0.68796,-0.34356 -0.202421,-0.1697 -0.38587,-0.36184 -0.526602,-0.58676 -0.13175,-0.23929 -0.254872,-0.4825 -0.362565,-0.7338 -0.104514,-0.26924 -0.210717,-0.53959 -0.266751,-0.82412 -0.039,-0.29774 -0.08819,-0.59412 -0.06321,-0.89583 0.0081,-0.33388 0.02267,-0.66802 0.07302,-0.99867 0.04475,-0.33904 0.07981,-0.67924 0.130039,-1.01756 0.0431,-0.29213 0.07588,-0.58542 0.151451,-0.8717 0.06291,-0.2428 0.138,-0.4832 0.232878,-0.71548 0.106111,-0.23384 0.21442,-0.48557 0.427193,-0.64323 0.348051,-0.23299 0.553995,0.0746 0.205944,0.30763 z"
         inkscape:connector-curvature="0" />
      <path
         style="opacity:1;fill:#000000;fill-opacity:1;fill-rule:nonzero;stroke:none;stroke-width:10.58333302;stroke-linecap:round;stroke-linejoin:miter;stroke-miterlimit:4;stroke-dasharray:none;stroke-dashoffset:0;stroke-opacity:1;paint-order:stroke markers fill"
         id="path1010"
         d="m 28.447886,340.52779 c -0.0055,0.0183 -0.0085,0.0375 -0.01648,0.0548 -0.02701,0.0582 -0.06395,0.11123 -0.09481,0.16745 -0.05179,0.0944 -0.09857,0.19077 -0.151088,0.28478 -0.0984,0.16983 -0.163168,0.32557 -0.233931,0.50262 -0.100767,0.21757 -0.1573,0.44985 -0.212574,0.68197 -0.05897,0.25281 -0.09307,0.5098 -0.1376,0.76536 -0.04613,0.22124 -0.04565,0.44373 -0.02598,0.66749 0.01678,0.191 0.07354,0.36788 0.183116,0.5252 0.119922,0.14861 0.267764,0.27556 0.432268,0.37227 0.154789,0.0838 0.318887,0.12581 0.49303,0.13993 0.180893,0.003 0.329742,-0.0409 0.464974,-0.16168 0.158535,-0.14605 0.268343,-0.33854 0.350088,-0.536 -0.0013,-0.003 -0.0052,-0.006 -0.0042,-0.009 0.01098,-0.037 0.02789,-0.072 0.03928,-0.10885 0.04971,-0.16076 0.08759,-0.32678 0.127569,-0.49016 0.05393,-0.22879 0.07538,-0.46207 0.08314,-0.69636 0.0039,-0.2246 0.01177,-0.44937 0.0075,-0.674 -0.0075,-0.1874 -0.05256,-0.36907 -0.0805,-0.55367 -0.03818,-0.16946 -0.06658,-0.34049 -0.103214,-0.51022 -0.03006,-0.12912 -0.06858,-0.25363 -0.141372,-0.36499 -0.08722,-0.1024 -0.17118,-0.20749 -0.255921,-0.31202 -0.04625,-0.0499 -0.106175,-0.0623 -0.170452,-0.0505 -0.0734,0.0542 -0.141748,0.11898 -0.201452,0.18791 -0.101055,0.0811 -0.09373,0.13538 -0.10347,0.1588 -0.04861,0.1388 -0.12822,0.31485 -0.142449,0.35182 -0.03819,0.0863 -0.06462,0.17682 -0.09578,0.26566 -0.04584,0.43998 -0.434711,0.39945 -0.388869,-0.0405 v 0 c 0.03502,-0.098 0.04857,-0.20283 0.09659,-0.2965 0.107559,-0.19949 0.08367,-0.14366 0.149011,-0.33184 0.06027,-0.15933 0.135745,-0.3066 0.26144,-0.42386 0.118761,-0.11967 0.245885,-0.22661 0.420309,-0.24738 0.169093,-0.0103 0.319141,0.0317 0.445818,0.1497 0.105537,0.10932 0.20061,0.22897 0.29545,0.34697 0.09176,0.14412 0.171045,0.29549 0.212576,0.46233 0.03851,0.17492 0.07057,0.35116 0.10963,0.52597 0.03542,0.19293 0.08557,0.38314 0.102672,0.57896 0.0292,0.23553 0.01471,0.47376 0.01506,0.71065 -0.009,0.25728 -0.0181,0.51614 -0.07207,0.76877 -0.06864,0.30189 -0.13435,0.60791 -0.265438,0.88992 -0.130839,0.23929 -0.275859,0.46895 -0.500668,0.63231 -0.2364,0.15234 -0.438952,0.21013 -0.721352,0.18841 -0.217271,-0.028 -0.432853,-0.0705 -0.626245,-0.17929 -0.219247,-0.11538 -0.409096,-0.2767 -0.562393,-0.47199 -0.138703,-0.20222 -0.238106,-0.42793 -0.266449,-0.67376 -0.0409,-0.25445 -0.04769,-0.51498 -0.0046,-0.76975 0.03987,-0.26347 0.06914,-0.52988 0.142938,-0.78671 0.05288,-0.25498 0.100833,-0.51515 0.222586,-0.74822 0.110188,-0.2449 0.205772,-0.49733 0.3453,-0.72784 0.102957,-0.18785 0.206314,-0.3824 0.372991,-0.52226 0.348049,-0.23299 0.553995,0.0746 0.205944,0.30763 z"
         inkscape:connector-curvature="0" />
      <path
         style="opacity:1;fill:#000000;fill-opacity:1;fill-rule:nonzero;stroke:none;stroke-width:10.58333302;stroke-linecap:round;stroke-linejoin:miter;stroke-miterlimit:4;stroke-dasharray:none;stroke-dashoffset:0;stroke-opacity:1;paint-order:stroke markers fill"
         d="m 20.819918,342.56048 c -0.971688,0.13548 -1.190624,1.26995 -1.908823,1.77087 -0.619107,0.60686 -1.370941,1.09048 -2.233185,1.24353 -1.137276,0.38784 -1.978535,1.37717 -2.345828,2.50122 -0.356782,0.91433 -0.522507,2.01102 -0.07499,2.92059 0.721519,1.13141 2.191086,1.44867 3.450023,1.39604 0.772738,-0.0344 1.582012,-0.13127 2.239028,-0.56706 0.728594,-0.0402 1.119957,-1.09959 1.853263,-0.58997 0.526166,0.38718 0.847274,1.0249 1.500701,1.24279 1.280204,0.66698 2.82807,1.08563 4.244272,0.63466 0.906191,-0.42196 1.524556,-1.34138 1.76593,-2.2886 0.206966,-1.33556 -0.284219,-2.6433 -0.647087,-3.90693 -0.30815,-0.74513 -0.945425,-1.33718 -1.695441,-1.62384 -0.627172,-0.58907 -1.52491,-0.77688 -2.361863,-0.73587 -1.088215,-0.25848 -1.662378,-1.37068 -2.688598,-1.75881 -0.343473,-0.15591 -0.720308,-0.23706 -1.097399,-0.23862 z m 0.0057,0.38913 c 1.004477,0.003 1.806379,0.70223 2.483471,1.36441 0.702605,0.68269 1.690345,0.62822 2.56781,0.78115 0.743811,0.47718 1.671579,0.76852 2.184193,1.52732 0.432754,0.69786 0.516687,1.53559 0.758057,2.30766 0.238655,0.94515 0.269446,2.03233 -0.352428,2.84382 -0.426077,0.71512 -1.216774,1.22078 -2.06962,1.13373 -1.38216,0.001 -2.739555,-0.52225 -3.81966,-1.37321 0.14587,-0.9143 -1.35952,-1.34177 -1.905693,-0.69446 -0.629235,0.53066 -1.341482,1.0277 -2.1935,1.06834 -1.307017,0.19136 -2.87073,0.0771 -3.795314,-0.98226 -0.531956,-0.88477 -0.259987,-1.99473 0.08909,-2.90058 0.339267,-0.90933 1.017799,-1.70722 1.950911,-2.03246 0.554278,-0.22059 1.166048,-0.2943 1.638058,-0.69172 0.794877,-0.5265 1.426148,-1.26168 1.940469,-2.0555 0.138824,-0.14856 0.320517,-0.26512 0.524153,-0.29624 z"
         id="path1018"
         inkscape:connector-curvature="0" />
      <path
         style="opacity:1;fill:#000000;fill-opacity:1;fill-rule:nonzero;stroke:none;stroke-width:10.58333302;stroke-linecap:round;stroke-linejoin:miter;stroke-miterlimit:4;stroke-dasharray:none;stroke-dashoffset:0;stroke-opacity:1;paint-order:stroke markers fill"
         id="path1089"
         d="m 124.8023,310.30037 c -0.0109,0.0632 -0.0545,0.11242 -0.0646,0.17658 -8e-4,0.005 0.0162,-0.0106 0.0153,-0.005 -0.005,0.0342 -0.0221,0.0656 -0.0303,0.0992 -0.0104,0.0432 -0.017,0.0872 -0.0254,0.13084 -0.0731,0.29654 -0.0836,0.59867 -0.0679,0.90207 0.0272,0.318 0.0946,0.6319 0.17998,0.93903 0.0677,0.2935 0.14627,0.58185 0.29399,0.84553 0.13515,0.24969 0.3224,0.45715 0.5541,0.61902 0.19849,0.13952 0.42499,0.21765 0.6505,0.2994 0.17636,0.0633 0.27786,0.1098 0.44142,0.003 0.19674,-0.14809 0.32874,-0.35698 0.45399,-0.56473 0.11774,-0.2055 0.1938,-0.43413 0.26872,-0.65979 0.066,-0.25474 0.11912,-0.50821 0.12583,-0.7716 -0.005,-0.28933 -0.0835,-0.56534 -0.15676,-0.8426 -0.0709,-0.24296 -0.17713,-0.46802 -0.31531,-0.6791 -0.0974,-0.14968 -0.22176,-0.27475 -0.36007,-0.38613 -0.11456,-0.0881 -0.24187,-0.15762 -0.37036,-0.223 -0.11413,-0.053 -0.22961,-0.0979 -0.35348,-0.1208 -0.11457,-0.0103 -0.23411,-0.0307 -0.34832,-0.01 -0.10635,0.0334 -0.19644,0.0977 -0.29302,0.15091 -0.0527,0.0433 -0.1158,0.0738 -0.16541,0.12102 -0.0268,0.0254 -0.045,0.0587 -0.0684,0.0874 -0.0784,0.1048 -0.16474,0.20391 -0.23555,0.31485 -0.008,0.0164 -0.0226,0.0308 -0.0232,0.0488 -5.3e-4,0.0156 0.0131,-0.0531 0.0229,-0.0409 0.007,0.009 -0.0606,0.15502 -0.0813,0.21246 -0.0174,0.062 -0.0108,0.0296 -0.019,0.0974 0.0243,0.44003 -0.3646,0.46154 -0.38895,0.0214 v 0 c 0.0176,-0.10213 0.008,-0.0533 0.0278,-0.14658 0.0464,-0.16743 0.10114,-0.3365 0.19615,-0.48302 0.0876,-0.11904 0.17961,-0.2354 0.27653,-0.34692 0.1,-0.0912 0.20752,-0.17495 0.32113,-0.24869 0.13288,-0.077 0.26569,-0.15687 0.42104,-0.17764 0.14855,-0.0111 0.29801,-0.003 0.44535,0.019 0.15332,0.0296 0.29813,0.0805 0.44008,0.14552 0.14796,0.0718 0.29324,0.15132 0.42767,0.24625 0.17436,0.12335 0.33401,0.26773 0.4632,0.4386 0.17539,0.23574 0.31977,0.49427 0.41118,0.77457 0.0865,0.31091 0.1681,0.62404 0.17205,0.9493 7e-5,0.099 0.003,0.20661 -0.008,0.30514 -0.0201,0.19362 -0.0747,0.38211 -0.11327,0.57224 -0.0908,0.33615 -0.20399,0.66813 -0.39722,0.96131 -0.17263,0.25964 -0.36434,0.51226 -0.65771,0.64236 -0.27858,0.0966 -0.42305,0.0787 -0.70024,-0.004 -0.26573,-0.0756 -0.52794,-0.16388 -0.76069,-0.3176 -0.10404,-0.0701 -0.17847,-0.11499 -0.27232,-0.20011 -0.16832,-0.15266 -0.30166,-0.34393 -0.41774,-0.53747 -0.16051,-0.29123 -0.27109,-0.60188 -0.34651,-0.92596 -0.0885,-0.33219 -0.17615,-0.66728 -0.2028,-1.01127 -0.0338,-0.34676 -0.0197,-0.69347 0.0718,-1.03163 0.0818,-0.26067 0.15586,-0.55359 0.39684,-0.71335 0.36867,-0.18761 0.53449,0.13825 0.16582,0.32586 z"
         inkscape:connector-curvature="0" />
      <path
         style="opacity:1;fill:#000000;fill-opacity:1;fill-rule:nonzero;stroke:none;stroke-width:10.58333302;stroke-linecap:round;stroke-linejoin:miter;stroke-miterlimit:4;stroke-dasharray:none;stroke-dashoffset:0;stroke-opacity:1;paint-order:stroke markers fill"
         id="path1093"
         d="m 129.19664,305.07053 c -0.17758,0.0558 -0.36132,0.0753 -0.53751,0.14087 -0.0813,0.0508 -0.1737,0.0949 -0.24347,0.16235 -0.0724,0.07 -0.12324,0.17025 -0.1751,0.25516 -0.10854,0.1764 -0.17141,0.33634 -0.24144,0.52731 -0.0823,0.24456 -0.17422,0.48549 -0.24457,0.73388 -0.055,0.22931 -0.0673,0.46641 -0.0759,0.7013 -0.004,0.21733 0.0724,0.42249 0.1452,0.624 0.0899,0.22185 0.18506,0.44045 0.2916,0.65484 0.1435,0.22413 0.28481,0.45006 0.41439,0.68263 0.12271,0.23381 0.24572,0.46738 0.35269,0.70884 0.10414,0.23752 0.20619,0.47736 0.29799,0.72012 0.0653,0.20217 0.17293,0.3815 0.2837,0.5606 0.0735,0.1298 0.17025,0.23526 0.28936,0.32321 0.12691,0.0747 0.26226,0.1148 0.40567,0.14221 0.15582,0.022 0.30785,0.0206 0.46076,-0.0167 0.16213,-0.0468 0.28825,-0.14865 0.41433,-0.2562 0.13391,-0.13412 0.24124,-0.28514 0.34397,-0.44299 0.0829,-0.16251 0.11706,-0.31478 0.17533,-0.49951 0.0809,-0.22992 0.13412,-0.46405 0.17039,-0.70458 0.0328,-0.24186 0.0617,-0.48321 0.0741,-0.72711 0.0106,-0.23492 0.0167,-0.47 0.018,-0.70519 -0.007,-0.20423 -0.0328,-0.40611 -0.0766,-0.60545 -0.0621,-0.19949 -0.15141,-0.38835 -0.2343,-0.57954 -0.0816,-0.19481 -0.18766,-0.37647 -0.29327,-0.55867 -0.10318,-0.16108 -0.20849,-0.32027 -0.30005,-0.48844 -0.0762,-0.12587 -0.14073,-0.26046 -0.23815,-0.37172 -0.0914,-0.0957 -0.19337,-0.17901 -0.2986,-0.25871 -0.13002,-0.10207 -0.25527,-0.21079 -0.37424,-0.32554 -0.0776,-0.0791 -0.15893,-0.15102 -0.25055,-0.21339 -0.067,-0.0655 -0.15107,-0.0962 -0.2346,-0.13433 -0.0919,-0.0235 -0.17659,-0.0665 -0.2698,-0.0862 -0.10273,-0.0108 -0.21024,-0.0287 -0.31265,-0.009 -0.0489,0.023 -0.0962,0.0306 -0.0969,0.0909 -0.30515,0.29822 -0.56874,0.0285 -0.2636,-0.26971 v 0 c 0.095,-0.11316 0.20645,-0.18341 0.35397,-0.20947 0.14157,-0.009 0.28391,0 0.42243,0.0332 0.11012,0.0305 0.21625,0.0735 0.32404,0.11094 0.0957,0.0448 0.19676,0.0826 0.27588,0.1551 0.10729,0.0686 0.20976,0.14253 0.30666,0.22526 0.11975,0.10301 0.23664,0.20823 0.35198,0.31629 0.11554,0.0968 0.24284,0.18068 0.34455,0.29281 0.11489,0.12798 0.206,0.27048 0.29208,0.41929 0.0948,0.15991 0.19923,0.31419 0.30078,0.46976 0.12664,0.18852 0.24667,0.37952 0.32383,0.59481 0.098,0.20778 0.19935,0.41492 0.26199,0.63691 0.0617,0.22471 0.0939,0.45566 0.1084,0.68818 5.2e-4,0.24045 0.006,0.48109 -0.004,0.72141 -0.0131,0.25093 -0.0327,0.50213 -0.0769,0.74975 -0.0207,0.26482 -0.0677,0.52779 -0.16708,0.77542 -0.0836,0.26651 -0.16926,0.53562 -0.32425,0.77123 -0.12331,0.18426 -0.25828,0.36171 -0.43002,0.50408 -0.17264,0.13687 -0.35581,0.24686 -0.5732,0.29668 -0.19698,0.0387 -0.39653,0.0437 -0.59466,0.006 -0.19424,-0.0349 -0.37667,-0.0993 -0.54186,-0.20979 -0.15002,-0.11043 -0.2879,-0.23132 -0.38721,-0.39169 -0.13696,-0.19026 -0.27083,-0.38319 -0.34709,-0.60758 -0.0991,-0.233 -0.18885,-0.46964 -0.28547,-0.70364 -0.1121,-0.22817 -0.22651,-0.45468 -0.34415,-0.68014 -0.13466,-0.2351 -0.27921,-0.4646 -0.41519,-0.6991 -0.11883,-0.22315 -0.21384,-0.45739 -0.311,-0.69051 -0.097,-0.24154 -0.1747,-0.49882 -0.18911,-0.75968 0.003,-0.2623 0.009,-0.52567 0.0639,-0.78343 0.0605,-0.26312 0.15006,-0.51702 0.24488,-0.76959 0.0978,-0.27702 0.2279,-0.54351 0.37825,-0.79576 0.15999,-0.23704 0.36817,-0.42373 0.63922,-0.52575 0.21077,-0.0619 0.4267,-0.10618 0.6476,-0.0809 0.41264,0.0289 0.38714,0.39359 -0.0255,0.36473 z"
         inkscape:connector-curvature="0" />
      <path
         style="opacity:1;fill:#000000;fill-opacity:1;fill-rule:nonzero;stroke:none;stroke-width:10.58333302;stroke-linecap:round;stroke-linejoin:miter;stroke-miterlimit:4;stroke-dasharray:none;stroke-dashoffset:0;stroke-opacity:1;paint-order:stroke markers fill"
         id="path1095"
         d="m 135.27391,304.01569 c -0.17613,0.0297 -0.35443,0.0199 -0.53174,0.038 -0.1378,0.01 -0.27407,0.0262 -0.39597,0.0944 -0.12085,0.0499 -0.21155,0.14575 -0.28662,0.25016 -0.0829,0.14317 -0.17763,0.27633 -0.27186,0.41164 -0.12404,0.16505 -0.10623,0.14642 -0.17098,0.28977 -0.0452,0.14229 -0.0655,0.29109 -0.0921,0.43765 -0.0223,0.17486 -0.0339,0.35126 -0.0357,0.5275 -0.01,0.21817 -0.036,0.4346 -0.045,0.65291 -0.0114,0.20159 -0.0238,0.40246 -0.008,0.60386 0.0329,0.22563 0.0506,0.45381 0.0542,0.68178 -5.3e-4,0.21965 0.0306,0.43698 0.0636,0.65352 0.0579,0.2236 0.0919,0.45169 0.13574,0.67818 0.0323,0.20918 0.0707,0.41727 0.12006,0.62312 0.0318,0.19619 0.0695,0.39013 0.11752,0.58285 0.0398,0.16407 0.11178,0.31644 0.17347,0.47257 0.0403,0.12716 0.13535,0.21616 0.23219,0.30226 0.10374,0.0828 0.21736,0.15386 0.33886,0.20741 0.12606,0.0394 0.26318,0.0439 0.39471,0.043 0.16091,-0.009 0.32742,-0.0212 0.4851,-0.0577 0.14933,-0.0251 0.28942,-0.0729 0.41477,-0.15775 0.13456,-0.13623 0.24682,-0.28847 0.35558,-0.44513 0.12966,-0.1578 0.24007,-0.33102 0.36917,-0.48874 0.0871,-0.13163 0.13149,-0.25273 0.16887,-0.35261 0.0664,-0.18812 0.14352,-0.37224 0.20312,-0.56274 0.0763,-0.19736 0.0833,-0.41016 0.11755,-0.6167 0.0397,-0.21653 0.0485,-0.43561 0.0518,-0.6551 -0.009,-0.2295 -0.0306,-0.45831 -0.0511,-0.68699 -0.0218,-0.22072 -0.0672,-0.43755 -0.0997,-0.65678 -0.0213,-0.1896 -0.077,-0.37187 -0.1239,-0.55605 -0.0375,-0.1602 -0.0743,-0.32083 -0.12258,-0.47823 -0.0526,-0.12833 -0.06,-0.26935 -0.10714,-0.39873 -0.0404,-0.13012 -0.0968,-0.24731 -0.17778,-0.35645 -0.0855,-0.12821 -0.16106,-0.26289 -0.24138,-0.39444 -0.0676,-0.0859 -0.14752,-0.1625 -0.22912,-0.23516 -0.0655,-0.0732 -0.15185,-0.12028 -0.22834,-0.1805 -0.0106,-0.008 -0.02,-0.0175 -0.0318,-0.0233 -0.02,-0.0101 -0.0445,-0.007 -0.0657,-0.0143 -0.056,-0.0188 -0.10881,-0.044 -0.16542,-0.0614 -0.092,-0.0517 -0.18714,-0.0793 -0.29114,-0.0905 -0.12035,-0.009 -0.24119,-0.008 -0.36181,-0.008 -0.04,0.0143 -0.1513,0 -0.16338,0.0503 -0.38229,0.17831 -0.53989,-0.15959 -0.1576,-0.3379 v 0 c 0.10964,-0.0601 0.22435,-0.0899 0.34931,-0.10011 0.13513,0 0.27076,0.003 0.40495,0.0196 0.11923,0.0199 0.23397,0.0518 0.34325,0.10446 0.12568,0.041 0.25652,0.0818 0.36241,0.16314 0.0745,0.0645 0.16938,0.10351 0.23547,0.17852 0.10801,0.0865 0.21653,0.17645 0.30249,0.2854 0.091,0.12163 0.15814,0.25824 0.24421,0.38317 0.0949,0.13497 0.17005,0.27739 0.21948,0.43535 0.0506,0.1333 0.0663,0.27329 0.11593,0.40696 0.0576,0.16086 0.10591,0.32506 0.15136,0.48971 0.0536,0.19659 0.099,0.39555 0.14659,0.59375 0.0279,0.22125 0.0806,0.43839 0.10728,0.6599 0.0369,0.24424 0.0422,0.49329 0.0657,0.73909 -0.008,0.23423 -0.0195,0.46897 -0.0509,0.70141 -0.032,0.22701 -0.0617,0.45609 -0.12701,0.67638 -0.0682,0.19648 -0.13671,0.39145 -0.21402,0.58462 -0.0898,0.2076 -0.17809,0.41675 -0.30837,0.6032 -0.10906,0.17219 -0.24009,0.32758 -0.35366,0.49678 -0.13653,0.19296 -0.28563,0.37661 -0.48957,0.50255 -0.16635,0.0931 -0.34441,0.15997 -0.53329,0.19106 -0.18489,0.0279 -0.37074,0.0626 -0.55856,0.0515 -0.17365,-0.0114 -0.34907,-0.0167 -0.51304,-0.0829 -0.15672,-0.0659 -0.30192,-0.15428 -0.43584,-0.25913 -0.13346,-0.12216 -0.25946,-0.25358 -0.33701,-0.41963 -0.0641,-0.16886 -0.14038,-0.33258 -0.19803,-0.5039 -0.0544,-0.19577 -0.1008,-0.3928 -0.13018,-0.59383 -0.0416,-0.21114 -0.0998,-0.41878 -0.13415,-0.63143 -0.039,-0.22841 -0.0786,-0.45712 -0.13177,-0.6827 -0.045,-0.23138 -0.0765,-0.46702 -0.0799,-0.70292 -0.009,-0.21926 -0.0109,-0.43876 -0.0321,-0.65739 -0.0296,-0.2182 -0.0323,-0.43688 -0.0216,-0.65677 0.0136,-0.21564 0.0305,-0.43143 0.0668,-0.64461 0.006,-0.19388 0.005,-0.38877 0.0384,-0.58057 0.0287,-0.17058 0.0644,-0.34068 0.10589,-0.50832 0.071,-0.19267 0.16133,-0.38018 0.29519,-0.53758 0.10651,-0.13975 0.1756,-0.30498 0.29622,-0.43503 0.12353,-0.11882 0.25351,-0.23402 0.41286,-0.30263 0.16009,-0.0663 0.3272,-0.10419 0.49928,-0.12483 0.18948,-0.0265 0.38172,-0.0354 0.57091,0 0.42052,0.0294 0.39453,0.40111 -0.026,0.37172 z"
         inkscape:connector-curvature="0" />
      <path
         style="opacity:1;fill:#000000;fill-opacity:1;fill-rule:nonzero;stroke:none;stroke-width:10.58333302;stroke-linecap:round;stroke-linejoin:miter;stroke-miterlimit:4;stroke-dasharray:none;stroke-dashoffset:0;stroke-opacity:1;paint-order:stroke markers fill"
         id="path1097"
         d="m 140.17685,309.03928 c -0.18124,0.0257 -0.36701,0.004 -0.55055,0.005 -0.1361,-0.007 -0.26043,0.04 -0.37343,0.11226 -0.1007,0.0946 -0.19484,0.19849 -0.27927,0.30798 -0.0792,0.14613 -0.1609,0.29075 -0.24642,0.43336 -0.0843,0.1543 -0.11985,0.24111 -0.17087,0.39359 -0.0624,0.18841 -0.11027,0.38016 -0.16084,0.57187 -0.0423,0.19217 -0.11835,0.37375 -0.16825,0.56367 -0.034,0.15732 -0.06,0.31636 -0.0863,0.47517 -0.0201,0.16496 -0.0215,0.33091 -0.0266,0.49675 0.005,0.15838 -0.0102,0.31636 0.008,0.47408 0.009,0.13801 0.0739,0.25839 0.13852,0.37754 0.0706,0.12729 0.16824,0.23566 0.29064,0.31408 0.14455,0.112 0.31603,0.13584 0.49015,0.16576 0.22408,0.0441 0.45084,0.0549 0.67838,0.0426 0.22471,-0.003 0.44394,-0.043 0.66269,-0.0905 0.19195,-0.0124 0.3491,-0.1098 0.516,-0.19267 0.14369,-0.0725 0.26598,-0.17407 0.37254,-0.29332 0.12376,-0.11925 0.20699,-0.26477 0.30126,-0.40608 0.10691,-0.14594 0.19838,-0.3039 0.27632,-0.46712 -0.003,0.005 -0.011,0.0198 -0.009,0.0145 0.0737,-0.15827 0.13341,-0.27085 0.18403,-0.39439 0.0606,-0.16843 0.10103,-0.34441 0.13592,-0.51988 0.0317,-0.19269 0.0409,-0.38759 0.0415,-0.58256 -0.005,-0.18153 -0.0234,-0.36301 -0.0532,-0.54215 -0.0303,-0.13632 -0.0787,-0.268 -0.14785,-0.38929 -0.0851,-0.13012 -0.1741,-0.25746 -0.26123,-0.38626 -0.0724,-0.0953 -0.16941,-0.17161 -0.26375,-0.24493 -0.114,-0.10234 -0.24787,-0.17555 -0.37527,-0.2586 -0.10359,-0.0758 -0.21922,-0.12028 -0.33875,-0.16227 -0.11153,-0.0432 -0.2294,-0.0581 -0.34781,-0.0665 -0.1174,0 -0.23765,-0.0169 -0.35442,0 -0.11065,0.0204 -0.21962,0.0414 -0.32802,0.0708 -0.0897,0.0397 -0.18013,0.0727 -0.26151,0.12846 -0.0778,0.0659 -0.14796,0.132 -0.20032,0.221 -0.0541,0.11319 0.009,-0.004 0.008,-0.003 -0.0945,0.22338 -0.0288,0.0627 -0.13804,0.3031 -0.007,0.0151 -0.0344,0.0563 -0.0214,0.0456 0.0133,-0.0111 0.01,-0.0354 0.0226,-0.0466 0.0103,-0.009 -0.009,0.0254 -0.0131,0.0384 -0.0161,0.0562 -0.0255,0.11451 -0.04,0.17121 -0.0184,0.43633 -0.40409,0.42006 -0.38566,-0.0164 v 0 c 0.0425,-0.14735 0.0731,-0.29782 0.14776,-0.43429 -0.007,0.0175 -0.0197,0.0718 -0.0217,0.0528 -0.006,-0.0539 0.1327,-0.31363 0.18465,-0.40383 0.0907,-0.11113 0.19712,-0.20503 0.31743,-0.28345 0.11319,-0.059 0.22673,-0.11737 0.34827,-0.15772 0.12059,-0.0283 0.24336,-0.0434 0.36434,-0.07 0.14039,-0.019 0.28235,-0.009 0.42357,-0.003 0.14759,0.0122 0.2946,0.0337 0.4336,0.0874 0.13808,0.052 0.27476,0.10247 0.40046,0.18171 0.1484,0.0808 0.28758,0.16785 0.4058,0.29073 0.11901,0.0969 0.2466,0.18706 0.34503,0.30575 0.0915,0.13584 0.18642,0.26932 0.27501,0.40719 0.087,0.15187 0.15539,0.31311 0.2054,0.48099 0.0476,0.20121 0.0722,0.40547 0.0899,0.61145 -0.007,0.21505 -0.009,0.4314 -0.0454,0.64405 -0.038,0.20124 -0.0786,0.40444 -0.14968,0.59677 -0.10818,0.22852 -0.15609,0.36271 -0.26583,0.58782 -0.0949,0.16806 -0.1919,0.33494 -0.30516,0.49157 -0.10397,0.15518 -0.21711,0.30168 -0.3488,0.43474 -0.13804,0.14364 -0.29333,0.26493 -0.47121,0.35658 -0.19055,0.10464 -0.39036,0.18912 -0.60552,0.22833 -0.23788,0.0513 -0.47738,0.0934 -0.72143,0.10054 -0.25887,0.0127 -0.51484,-0.004 -0.76806,-0.0641 -0.2162,-0.0511 -0.43518,-0.0986 -0.61296,-0.24154 -0.16017,-0.11851 -0.31107,-0.25268 -0.40671,-0.43079 -0.0761,-0.15288 -0.14974,-0.31311 -0.17732,-0.48258 -0.0306,-0.1737 -0.0381,-0.34787 -0.0288,-0.52424 -8e-4,-0.18029 0.004,-0.36124 0.025,-0.54036 0.0204,-0.16857 0.0628,-0.33264 0.0769,-0.50202 0.0374,-0.19492 0.10296,-0.3818 0.15732,-0.57235 0.0481,-0.20383 0.10618,-0.4051 0.16963,-0.6047 0.0807,-0.21757 0.15896,-0.43707 0.29142,-0.63029 0.0891,-0.15934 0.17118,-0.3252 0.28609,-0.46776 0.11536,-0.13753 0.24203,-0.26887 0.39238,-0.36843 0.16647,-0.0842 0.34161,-0.14632 0.5306,-0.14859 0.18855,-0.0106 0.37522,-0.01 0.55882,0.041 0.41265,0.0289 0.38714,0.3936 -0.0255,0.36473 z"
         inkscape:connector-curvature="0" />
      <path
         style="opacity:1;fill:#000000;fill-opacity:1;fill-rule:nonzero;stroke:none;stroke-width:10.58333302;stroke-linecap:round;stroke-linejoin:miter;stroke-miterlimit:4;stroke-dasharray:none;stroke-dashoffset:0;stroke-opacity:1;paint-order:stroke markers fill"
         id="path1000"
         d="m 12.702537,342.30024 c -0.02182,0.18201 -0.02753,0.36449 -0.031,0.54758 -0.0095,0.29541 0.01633,0.58939 0.08601,0.87641 0.08636,0.3131 0.253088,0.54882 0.475378,0.77896 0.202512,0.21214 0.456076,0.35575 0.721215,0.47394 0.130953,0.0461 0.316362,0.11735 0.457441,0.078 0.01968,-0.006 0.03747,-0.0164 0.0562,-0.0243 0.05528,-0.036 0.09264,-0.093 0.115931,-0.15473 0.0012,-0.003 -0.0088,-0.003 -0.0082,-0.006 0.01147,-0.0699 0.03361,-0.13774 0.04778,-0.20719 0.04988,-0.26726 0.05163,-0.54134 0.03982,-0.81214 -0.01022,-0.27813 -0.120812,-0.52967 -0.225843,-0.78216 -0.103114,-0.24929 -0.240014,-0.48157 -0.388715,-0.70591 -0.123626,-0.17706 -0.258308,-0.34573 -0.413486,-0.49604 -0.10354,-0.0945 -0.229539,-0.16071 -0.350192,-0.23088 -0.08842,-0.0573 -0.193305,-0.0695 -0.293524,-0.0948 -0.06884,-0.0111 -0.168305,-0.0537 -0.230472,-0.005 -0.0764,0.0557 -0.122002,0.1165 -0.154803,0.20415 0.0051,-0.007 0.01426,-0.0284 0.01524,-0.0201 0.0046,0.0385 -0.01719,0.076 -0.021,0.11462 -0.0072,0.0734 -0.0071,0.14896 -0.0086,0.22268 -0.0033,0.14544 -1.07e-4,0.29019 0.02606,0.43344 0.02292,0.10472 0.0373,0.21074 0.0705,0.31295 0.0053,0.0111 0.01052,0.0222 0.01577,0.0335 0.164907,0.26683 -0.07095,0.41259 -0.235855,0.14576 v 0 c -0.0088,-0.0185 -0.0176,-0.0369 -0.0264,-0.0554 -0.03991,-0.1075 -0.0771,-0.21648 -0.09553,-0.32996 -0.04531,-0.1611 -0.07127,-0.32364 -0.05589,-0.49173 0.0058,-0.18888 0.01167,-0.37798 0.09686,-0.55131 0.0728,-0.12909 0.172754,-0.23556 0.313467,-0.29049 0.122975,-0.031 0.242486,-0.0286 0.365692,0.004 0.121647,0.0279 0.245223,0.0521 0.356201,0.11221 0.139374,0.0731 0.283728,0.13996 0.408782,0.23688 0.189178,0.1478 0.345421,0.33197 0.48845,0.52398 0.166234,0.23704 0.318094,0.48355 0.437163,0.74814 0.116674,0.2836 0.233591,0.56851 0.254204,0.87857 0.02373,0.30049 0.02963,0.60381 -0.0421,0.89903 -0.07372,0.28284 -0.151281,0.53441 -0.434374,0.66847 -0.03708,0.0116 -0.07323,0.0268 -0.111231,0.0349 -0.202165,0.043 -0.411609,-0.008 -0.604833,-0.0648 -0.320183,-0.11716 -0.598413,-0.27689 -0.840977,-0.52068 -0.04271,-0.0427 -0.08776,-0.0831 -0.12812,-0.12798 -0.204732,-0.22762 -0.359356,-0.49633 -0.446198,-0.78996 -0.01455,-0.0588 -0.03189,-0.11703 -0.04364,-0.17645 -0.05158,-0.26099 -0.04532,-0.52986 -0.03386,-0.7941 0.01621,-0.20854 0.03013,-0.42518 0.112659,-0.61984 0.02658,-0.29871 0.29061,-0.27522 0.264027,0.0236 z"
         inkscape:connector-curvature="0" />
      <path
         style="opacity:1;fill:#000000;fill-opacity:1;fill-rule:nonzero;stroke:none;stroke-width:10.58333302;stroke-linecap:round;stroke-linejoin:miter;stroke-miterlimit:4;stroke-dasharray:none;stroke-dashoffset:0;stroke-opacity:1;paint-order:stroke markers fill"
         d="m 133.165,312.8238 c -1.44454,-0.0804 -2.69222,0.84574 -3.40249,2.03885 -0.60971,1.15212 -2.03748,1.19434 -2.81922,2.09955 -0.59848,0.93469 -0.64145,2.17325 -0.36233,3.22245 0.486,1.48538 2.04393,2.29054 3.53805,2.29689 1.4748,0.16466 2.92065,-0.24057 4.29076,-0.73172 1.30437,-0.23185 2.66338,-0.96758 2.96588,-2.36225 0.45163,-1.61367 -0.34714,-3.31547 -1.55959,-4.37525 -0.73623,-0.83979 -0.73494,-2.56888 -2.25395,-2.1826 l -0.19928,-0.002 z m 0.51366,0.59169 c 1.51769,0.092 1.59665,2.16109 2.75491,2.90149 1.07458,1.42498 0.93652,3.99919 -0.93918,4.67235 -1.8274,0.51875 -3.67404,1.37761 -5.62305,1.04913 -1.28451,-0.12015 -2.65357,-0.80567 -2.94403,-2.17546 -0.23513,-1.13019 -0.18947,-2.65272 1.01364,-3.22708 1.79027,-0.31764 2.26757,-2.45729 3.90105,-3.01788 0.58193,-0.26184 1.23412,-0.0518 1.83666,-0.20255 z"
         id="path1099"
         inkscape:connector-curvature="0" />
      <path
         style="opacity:1;fill:#ff7f2a;fill-opacity:1;fill-rule:nonzero;stroke:none;stroke-width:1.87088668;stroke-linecap:round;stroke-linejoin:miter;stroke-miterlimit:4;stroke-dasharray:none;stroke-dashoffset:0;stroke-opacity:1;paint-order:stroke markers fill"
         d="m 149.50166,15.283523 c -0.6085,0.08995 -1.18225,0.350533 -1.74842,0.58288 -0.60507,0.248393 -1.08341,0.70924 -1.46086,1.232386 -1.11559,1.269267 -2.52442,2.330269 -3.28434,3.878958 -0.4737,0.844907 -0.90013,1.714312 -1.26326,2.609615 -0.43443,0.916246 -0.90191,1.819471 -1.21425,2.788016 -0.44517,1.315639 -0.64317,2.698907 -1.03591,4.030197 -0.33623,1.309958 -0.58203,2.643397 -1.0195,3.924068 -0.23294,0.782216 -0.35674,1.593133 -0.62686,2.365118 0.11338,0.41778 0.38289,0.805333 0.46726,1.230511 0.17528,0.587923 0.19732,1.209979 0.3624,1.794608 0.15263,0.227158 0.35876,-0.04461 0.42214,-0.200427 0.43207,-0.742998 0.89544,-1.488215 1.50511,-2.099265 0.29058,-0.295013 0.82105,-0.46476 1.14144,-0.116293 0.45315,0.435449 0.4643,1.121855 0.74662,1.654932 0.25055,0.153763 0.32795,-0.2422 0.39866,-0.40204 0.4875,-1.483436 1.29729,-2.870705 2.31275,-4.057761 0.20976,-0.265112 0.66346,-0.361233 0.85835,-0.02722 0.369,0.694589 0.37371,1.512956 0.58863,2.259251 0.40347,1.57976 0.75763,3.2118 1.59377,4.630782 0.11072,0.200022 0.39878,0.06915 0.3538,-0.144063 0.2145,-0.852218 0.54555,-1.683507 0.95628,-2.450068 0.13657,-0.300368 0.41883,-0.529736 0.76406,-0.495755 0.63284,-0.0079 1.05461,0.562647 1.4743,0.955214 0.81312,0.83017 1.80648,1.451033 2.75365,2.112563 0.29481,0.05304 0.20522,-0.342447 0.22603,-0.517689 -0.0102,-1.141658 0.19241,-2.288114 0.26655,-3.435098 0.01,-0.368705 -0.11392,-0.770724 0.16413,-1.078188 0.2275,-0.402368 0.79359,-0.2409 1.05997,0.03467 1.53498,1.215763 3.1401,2.343381 4.63474,3.609769 0.19844,0.153109 0.34425,-0.133477 0.25415,-0.299516 -0.15949,-0.68907 -0.30702,-1.390547 -0.27525,-2.099294 0.20166,-0.175898 0.42348,-0.429517 0.67718,-0.470818 1.62646,1.005337 3.0304,2.387237 4.81928,3.123861 0.50935,0.19364 0.98885,0.461401 1.49123,0.665223 0.29222,-0.01249 0.13856,-0.354819 0.065,-0.509939 -0.27238,-0.581814 -0.62143,-1.125755 -0.84876,-1.730246 -0.7855,-1.839404 -1.51439,-3.705113 -2.42516,-5.48808 -0.70778,-1.535249 -1.31575,-3.134391 -2.28137,-4.537556 -0.83005,-1.178425 -1.43595,-2.488478 -2.06666,-3.778312 -0.52568,-1.001665 -1.38842,-1.7665 -1.99969,-2.711873 -0.59927,-0.889371 -1.24107,-1.750185 -1.98518,-2.525018 -0.93091,-1.053856 -2.06592,-1.900595 -3.20951,-2.707986 -0.82914,-0.536604 -1.67378,-1.065546 -2.57771,-1.466469 -0.33019,-0.11353 -0.68885,-0.125337 -1.03474,-0.133648 z"
         id="path1190"
         inkscape:connector-curvature="0" />
      <g
         id="g1169"
         transform="matrix(1,0,0,0.87411917,2.9689203e-7,7.766032)">
        <path
           transform="scale(0.26458333)"
           inkscape:connector-curvature="0"
           id="path1165"
           d="m 569.00334,113.5492 c -1.26808,0.23439 -1.09784,1.8909 -0.57798,2.58951 -1.30188,2.11798 -0.89378,5.18749 -2.84224,6.85286 -2.48338,-0.16551 -2.23005,2.98426 -3.385,4.39939 -0.54096,1.59104 -2.87236,1.8241 -3.08254,3.46095 0.49065,1.46126 1.3857,4.02453 -0.81483,4.50781 -1.13173,0.36182 -3.86455,-0.5798 -3.09732,1.43781 0.63063,1.61226 -1.11989,2.70403 -1.50164,4.15828 -0.67728,1.13054 -2.35534,1.46947 -2.33883,3.04249 -0.27907,1.92035 -0.68167,4.54089 -3.00245,4.93386 -1.35213,1.43256 -0.33389,3.74446 -0.92324,5.51323 -0.25191,1.97413 -1.83208,3.77176 -3.85663,3.83937 -1.16988,1.62904 0.0126,4.0815 -1.23606,5.80463 -0.84165,1.71588 -2.95822,0.90565 -4.35865,1.31132 -0.6042,3.14883 0.24435,7.31662 -2.45278,9.72065 -1.56751,0.39587 -1.0296,2.03469 -0.79963,3.15436 0.13086,1.74549 0.82876,4.27915 -1.33273,5.02363 -1.13507,0.76882 -3.31699,-0.0358 -3.66053,1.3935 1.42222,2.2304 1.47999,6.52183 -1.794,6.97784 -1.54947,-0.34533 -1.42879,1.45732 -0.72852,2.25045 1.3376,2.20866 0.32524,5.3232 -2.30998,5.88545 -1.25682,0.2009 -1.72524,1.45738 -1.00044,2.46173 0.39326,3.09626 -2.2001,5.44156 -4.17427,7.32656 1.39046,1.78146 2.66808,4.6091 0.69053,6.49931 -1.10533,1.76246 -3.73649,3.36521 -2.63991,5.75284 0.60128,2.39557 -0.30617,5.13801 0.83278,7.35418 4.98319,1.32198 10.31273,0.64118 15.4361,0.78022 6.76594,-0.002 13.5466,-0.37657 20.1687,-1.82814 12.48423,-1.59638 25.23222,0.27824 37.67451,-2.08823 5.52975,-0.66326 10.09183,-4.24657 15.13682,-6.31933 2.26067,-1.25986 4.79282,-1.83391 7.18554,-2.69032 1.2885,-3.31684 0.9204,-7.11513 1.46462,-10.61212 -0.76263,-0.97382 -1.98806,-1.7629 -1.82024,-3.2469 -0.15394,-2.14727 -0.0624,-4.5784 -1.76777,-6.16508 -0.73279,-2.76192 0.34067,-5.85492 -0.69054,-8.5129 -1.12638,-0.60558 -2.66442,1.02868 -3.67916,-0.36737 -1.63081,-1.63345 -0.61807,-4.31915 -1.06688,-6.39434 0.17659,-1.19981 -0.88476,-1.76556 -1.89758,-1.48948 -2.63005,-1.11089 -1.90992,-4.3319 -2.08197,-6.60772 0.2132,-1.38589 -0.85235,-2.28437 -2.13996,-2.38028 -2.05032,-1.40612 -1.27305,-4.43099 -1.59108,-6.56291 -0.0875,-1.21551 0.25272,-3.66163 -1.6565,-3.4809 -2.77756,-0.53447 -1.66092,-3.81993 -1.89345,-5.76251 0.54053,-1.79551 -0.77417,-1.9614 -2.08748,-1.70009 -1.54625,-0.41246 -2.44119,-1.85346 -1.91827,-3.46096 -0.0864,-1.94648 0.37676,-4.00294 -0.047,-5.88197 -1.74403,0.23575 -3.27796,-0.92781 -3.73648,-2.59779 -0.80151,-1.61896 -0.18901,-4.0869 -1.77743,-5.22872 -1.18723,-0.005 -2.91766,-0.0779 -2.7428,-1.75257 -0.3004,-1.72715 0.60369,-3.76951 -0.18299,-5.2674 -2.12646,-0.32826 -3.5346,-2.30581 -3.55832,-4.36141 -0.80406,-1.08245 -2.59303,0.22583 -3.28902,-1.196 -1.2364,-1.73055 0.033,-4.12061 -0.6346,-5.99177 -1.51545,0.25054 -3.15958,-0.15657 -4.04584,-1.57994 -0.88677,-0.81919 -1.04356,-2.68747 -2.37405,-2.90508 z"
           style="opacity:1;fill:#ffaaaa;fill-opacity:1;fill-rule:nonzero;stroke:none;stroke-width:14.14213562;stroke-linecap:round;stroke-linejoin:miter;stroke-miterlimit:4;stroke-dasharray:none;stroke-dashoffset:0;stroke-opacity:1;paint-order:stroke markers fill" />
      </g>
      <path
         style="opacity:1;fill:#ffaaaa;fill-opacity:1;fill-rule:nonzero;stroke:none;stroke-width:3.74177337;stroke-linecap:round;stroke-linejoin:miter;stroke-miterlimit:4;stroke-dasharray:none;stroke-dashoffset:0;stroke-opacity:1;paint-order:stroke markers fill"
         d="m 60.365247,66.512981 c -1.505048,0.02638 -2.498532,1.362914 -3.3938,2.398977 -0.846161,1.178679 -2.049444,2.393374 -1.959239,3.954913 0.0581,0.57083 0.736594,0.771895 1.190315,0.713277 0.01474,0.611526 -0.880065,0.921615 -0.571873,1.548357 0.423598,0.554313 1.258679,0.29745 1.865963,0.418632 2.464742,0.225409 4.802378,1.117063 7.23087,1.511509 0.606125,0.07606 0.921122,-0.567978 0.790741,-1.088734 -0.21672,-2.218984 -1.275175,-4.24185 -2.400728,-6.125692 -0.564052,-0.952709 -0.849315,-2.115645 -1.578195,-2.981541 -0.323487,-0.267896 -0.762283,-0.360993 -1.174054,-0.349698 z"
         id="path1159"
         inkscape:connector-curvature="0" />
      <path
         style="opacity:1;fill:#000000;fill-opacity:1;fill-rule:nonzero;stroke:none;stroke-width:10.58333302;stroke-linecap:round;stroke-linejoin:miter;stroke-miterlimit:4;stroke-dasharray:none;stroke-dashoffset:0;stroke-opacity:1;paint-order:stroke markers fill"
         id="path1145"
         d="m 61.842193,67.246258 c 0.130135,0.130723 0.213847,0.30016 0.298593,0.461928 0.107585,0.234895 0.211995,0.471094 0.321474,0.705229 0.122244,0.238344 0.228244,0.484293 0.33413,0.730168 0.09035,0.21318 0.197889,0.419409 0.315999,0.6185 0.09834,0.206645 0.203536,0.409985 0.32106,0.606544 0.107578,0.183161 0.220264,0.363239 0.326783,0.547029 0.10541,0.184113 0.208047,0.369004 0.302389,0.559086 0.09135,0.182708 0.180867,0.36495 0.260672,0.55296 0.05016,0.142029 0.101514,0.28439 0.165449,0.420929 0.05011,0.120875 0.116917,0.233055 0.177788,0.348787 0.06656,0.124166 0.110419,0.257185 0.158939,0.388728 0.03476,0.128783 0.07571,0.255958 0.100178,0.387218 0.02872,0.110577 0.06314,0.220435 0.09787,0.329636 0.02971,0.10963 0.05944,0.219305 0.09372,0.327605 0.03166,0.09142 0.04014,0.187404 0.06616,0.279984 0.02003,0.08311 0.03816,0.166638 0.06291,0.248542 0.04682,0.110966 0.0844,0.224936 0.09933,0.344869 0.02694,0.08328 0.03494,0.171619 0.05742,0.255402 0.03219,0.09284 0.04645,0.189614 0.05467,0.287086 0.0074,0.07796 -0.0021,0.154564 0.01326,0.231071 0.03175,0.104664 0.03568,0.214667 0.03898,0.323191 0.0013,0.104331 0.0047,0.208648 -0.0052,0.312576 -0.02885,0.205685 -0.110614,0.314034 -0.294023,0.392886 -0.08693,0.0481 -0.184531,0.06699 -0.28191,0.07957 -0.09827,0.01008 -0.197182,0.01019 -0.295857,0.01053 -0.09235,2.55e-4 -0.180683,-0.03146 -0.272373,-0.04136 -0.100633,-0.0071 -0.202709,-0.01815 -0.299496,-0.04631 -0.08479,-0.03396 -0.175502,-0.04133 -0.264038,-0.05917 -0.09518,-0.0164 -0.186044,-0.0497 -0.28025,-0.07008 -0.111056,-0.03089 -0.223006,-0.05106 -0.332364,-0.08875 -0.09109,-0.03813 -0.187971,-0.05706 -0.28284,-0.08293 -0.08043,-0.01998 -0.151968,-0.06088 -0.234468,-0.07341 -0.09361,-0.01384 -0.184952,-0.0371 -0.273875,-0.07006 -0.07681,-0.02035 -0.153469,-0.03206 -0.229905,-0.05497 -0.07572,-0.02019 -0.154294,-0.01831 -0.231328,-0.03037 -0.09551,-0.01535 -0.188507,-0.03126 -0.280913,-0.05992 -0.07823,-0.02244 -0.154091,-0.04973 -0.234783,-0.06192 -0.106183,-0.01304 -0.210394,-0.04026 -0.313929,-0.0668 -0.09791,-0.01815 -0.193198,-0.04756 -0.290885,-0.06662 -0.0698,-0.02932 -0.146817,-0.01937 -0.21902,-0.03468 -0.01852,-0.0039 -0.101586,-0.02979 -0.124401,-0.03679 -0.095,-0.03845 -0.193056,-0.06705 -0.290603,-0.09798 -0.08483,-0.02476 -0.167095,-0.05544 -0.254503,-0.07 -0.09866,-0.02506 -0.198384,-0.0443 -0.29669,-0.07069 -0.09612,-0.02167 -0.194291,-0.03803 -0.292418,-0.04701 -0.117705,-0.01214 -0.234362,-0.03055 -0.35125,-0.04857 -0.105174,-0.0076 -0.204798,-0.03617 -0.306422,-0.06156 -0.08546,-0.01148 -0.168497,-0.03515 -0.253465,-0.04953 -0.09024,-0.0024 -0.175348,-0.02679 -0.262713,-0.04652 -0.09304,-0.01715 -0.175353,-0.07348 -0.269237,-0.08373 -0.0992,-0.01437 -0.195173,-0.04381 -0.294402,-0.0588 -0.07699,-0.01278 -0.155234,-0.0069 -0.232344,-0.01378 -0.08303,-0.0081 -0.165481,0.0035 -0.248494,0.0049 -0.09752,4.2e-5 -0.195022,-0.0016 -0.292531,-0.0024 -0.08537,0.008 -0.176895,-0.01564 -0.260543,0.0053 -0.09541,0.02069 -0.192609,0.02988 -0.289878,0.03583 -0.09752,0.0048 -0.195199,0.0049 -0.29282,0.005 -0.09375,-6e-6 -0.187504,-1.7e-4 -0.281257,-2.52e-4 -0.0799,7.93e-4 -0.161883,-2.65e-4 -0.239972,-0.01802 -0.166894,-0.06706 -0.219051,-0.190135 -0.204615,-0.359334 0.03017,-0.145814 0.116789,-0.258347 0.233095,-0.342712 0.05274,-0.05228 0.122714,-0.08997 0.169601,-0.147799 0.06991,-0.05761 0.126534,-0.124581 0.201538,-0.176942 0.04991,-0.05343 0.115718,-0.08945 0.150387,-0.155737 0.04749,-0.06676 0.104825,-0.124325 0.147203,-0.194757 0.0051,-0.04013 0.06423,-0.126537 -0.01201,0.0084 -0.0048,0.0085 0.0083,-0.0176 0.01201,-0.02656 0.0337,-0.08013 0.0078,-0.02495 0.03792,-0.08682 0.02569,-0.06171 0.05114,-0.124408 0.07176,-0.188106 0.01751,-0.07093 0.01749,-0.14469 0.01886,-0.21731 0.01315,-0.03833 -0.02466,-0.129622 0.02299,-0.069 5.3e-4,0.0021 0.0031,0.0051 0.0013,0.0064 -0.0091,0.0072 -0.02326,5.8e-5 -0.03473,0.0016 -0.01812,0.0024 -0.03463,0.01201 -0.05249,0.01598 -0.093,0.01992 -0.187994,0.02614 -0.282771,0.03023 -0.129804,0.01104 -0.217927,-2.55e-4 -0.339849,-0.05045 -0.09046,-0.03325 -0.169101,-0.09052 -0.241671,-0.152704 -0.06714,-0.05047 -0.110299,-0.123021 -0.161398,-0.187949 -0.06653,-0.09799 -0.114506,-0.205455 -0.144127,-0.319839 -0.03271,-0.135991 -0.03794,-0.275027 -0.03445,-0.414221 0.0094,-0.161409 0.04138,-0.318924 0.08423,-0.474385 0.03627,-0.159224 0.113052,-0.303855 0.169625,-0.455845 0.07438,-0.200324 0.1676,-0.393507 0.263247,-0.584372 0.105431,-0.171556 0.207118,-0.345149 0.314489,-0.515496 0.02053,-0.02838 0.04258,-0.05572 0.06157,-0.08515 0.08389,-0.130077 0.01167,-0.04377 0.108079,-0.182095 0.0714,-0.102428 0.150032,-0.200014 0.221194,-0.302924 0.147892,-0.203737 0.322297,-0.387019 0.460788,-0.59732 0.143402,-0.205158 0.282385,-0.414049 0.443064,-0.60624 0.142017,-0.18782 0.295076,-0.36644 0.450508,-0.543145 0.173228,-0.199863 0.370549,-0.375846 0.583891,-0.531466 0.156318,-0.09473 0.29814,-0.211256 0.452128,-0.308962 0.119239,-0.06932 0.222591,-0.159226 0.345664,-0.221704 0.08689,-0.07622 0.189643,-0.126627 0.291386,-0.179335 0.08719,-0.04693 0.18378,-0.07198 0.273635,-0.111808 0.09632,-0.0356 0.198347,-0.05099 0.298153,-0.0738 0.08528,-0.02193 0.173833,-0.02159 0.258988,-0.04277 0.09342,-0.02466 0.189643,-0.03341 0.285774,-0.03886 0.108646,-0.0013 0.215778,-0.01572 0.323257,0.0021 0.10065,0.01437 0.194045,0.05458 0.288676,0.08984 0.08136,0.0272 0.160616,0.06174 0.23653,0.101701 0.07072,0.0361 0.142168,0.06897 0.21245,0.105735 0.08352,0.04853 0.143242,0.12477 0.204441,0.197427 0.04196,0.06514 0.088,0.127545 0.129862,0.192696 0.01119,0.02146 0.02238,0.04291 0.03356,0.06437 0.214692,0.439653 -0.17391,0.629412 -0.388598,0.189762 v 0 c 0.0024,-0.0046 0.0048,-0.0093 0.0072,-0.01392 -0.01418,-0.05638 -0.07774,-0.09084 -0.09201,-0.147061 -0.02466,-0.03583 -0.06056,-0.07241 -0.08571,-0.09877 -0.07179,-0.03496 -0.143954,-0.0684 -0.212549,-0.108945 -0.06997,-0.03163 -0.143371,-0.05479 -0.213932,-0.0849 -0.06061,-0.03043 -0.125548,-0.04551 -0.193078,-0.05019 -0.08756,0.0013 -0.174865,-0.0096 -0.262503,-0.003 -0.07137,0.0029 -0.143079,0.007 -0.21195,0.02765 -0.08678,0.02318 -0.175289,0.03273 -0.262255,0.05484 -0.08531,0.02217 -0.17268,0.02835 -0.255016,0.06103 -0.08258,0.02736 -0.154152,0.07235 -0.23103,0.112757 -0.09579,0.04791 -0.171957,0.12169 -0.263934,0.176189 -0.10159,0.07886 -0.2025,0.158417 -0.308706,0.231177 -0.137507,0.1158 -0.265637,0.242668 -0.405395,0.355984 -0.182718,0.156003 -0.352838,0.325191 -0.519911,0.497731 -0.154194,0.156933 -0.299665,0.321289 -0.420452,0.50614 -0.138528,0.205933 -0.279038,0.410745 -0.422722,0.613079 -0.156589,0.203499 -0.318614,0.402633 -0.475219,0.606134 -0.14225,0.164815 -0.272978,0.337212 -0.384497,0.524794 -0.103828,0.152037 -0.209185,0.303236 -0.307875,0.458631 0.0069,-0.01482 0.02825,-0.05896 0.02069,-0.04447 -0.06347,0.121481 -0.103701,0.253373 -0.168027,0.374536 -0.04154,0.09681 -0.07888,0.195474 -0.124116,0.290647 -0.008,0.01675 -0.02024,0.0314 -0.0269,0.04872 -0.0096,0.02492 -0.01431,0.05148 -0.02146,0.07722 -0.0417,0.130625 -0.07748,0.265213 -0.09763,0.400616 -0.0066,0.03412 -0.01918,0.06726 -0.02215,0.101891 -0.0055,0.06438 0.0072,0.132678 0.01013,0.196805 0.01212,0.07297 0.02381,0.144595 0.05529,0.212027 0.02856,0.04913 0.05111,0.09709 0.09695,0.130037 0.03477,0.03994 0.09028,0.05918 0.137973,0.07805 0.0621,0.02331 0.126793,0.01468 0.192323,0.0136 0.07756,-0.0024 0.155233,-0.0062 0.23188,-0.01924 0.127963,-0.01897 0.247092,-0.01744 0.359683,0.05627 0.116856,0.09604 0.172254,0.189635 0.170291,0.343236 -0.0019,0.101047 -0.0042,0.202616 -0.02297,0.302231 -0.01916,0.08616 -0.05364,0.164518 -0.07641,0.249431 -0.04838,0.117144 -0.09438,0.237408 -0.167,0.342871 -0.05322,0.07594 -0.10396,0.153572 -0.166505,0.222684 -0.07049,0.07509 -0.149151,0.141705 -0.230357,0.204996 -0.0542,0.04624 -0.106709,0.09474 -0.158699,0.143137 -0.06717,0.06189 -0.131818,0.128082 -0.211241,0.174652 -0.01154,0.01071 -0.02109,0.01987 -0.02799,0.03294 -0.0049,0.0092 -0.02027,0.03634 -0.0167,0.02652 0.02707,-0.07435 0.06473,-0.13318 0.0311,-0.07891 -0.03545,-0.04737 0.01045,0.0047 -0.01852,-0.0043 -0.03036,-0.0094 -0.04393,-0.07049 -0.08805,-0.0616 0.05706,0.0041 0.108379,-0.003 0.165724,-0.01542 0.09334,9e-5 0.186672,2.65e-4 0.280006,1.67e-4 0.08947,-2.65e-4 0.179033,-5.29e-4 0.268365,-0.0061 0.09111,-0.0071 0.181012,-0.0217 0.271213,-0.03606 0.101659,-0.0074 0.203454,-0.005 0.305351,-0.0058 0.09959,-5.29e-4 0.199212,-0.0016 0.298765,0.0016 0.07432,0.0039 0.14782,0.0199 0.222117,0.01558 0.09661,-0.03251 0.203719,-0.007 0.30276,-0.0026 0.113241,0.01442 0.224257,0.0384 0.335095,0.06545 0.08723,0.02856 0.171141,0.06291 0.255503,0.09845 0.0832,0.01857 0.167534,0.0209 0.251677,0.03489 0.08905,0.01767 0.175556,0.0448 0.265488,0.05794 0.09527,0.01924 0.191916,0.01815 0.288182,0.03176 0.118805,0.019 0.236773,0.03578 0.356581,0.04798 0.107572,0.02535 0.21399,0.05196 0.322451,0.07316 0.08763,0.02365 0.176604,0.04025 0.264287,0.06388 0.103448,0.01876 0.202379,0.05012 0.302262,0.08204 0.0902,0.0285 0.181322,0.05348 0.27083,0.08428 0.107448,0.02 0.215775,0.0336 0.319178,0.07145 0.106812,0.01887 0.212026,0.04526 0.318997,0.06324 0.09492,0.02463 0.1846,0.06588 0.283123,0.0751 0.0915,0.0182 0.178093,0.04841 0.266263,0.07718 0.08141,0.01945 0.1665,0.02143 0.247473,0.04435 0.08716,0.01894 0.178803,0.01802 0.263922,0.04845 0.08397,0.02125 0.172331,0.0249 0.253622,0.05784 0.07294,0.02381 0.147219,0.04502 0.223271,0.05539 0.08821,0.01929 0.17235,0.05111 0.260757,0.06933 0.105014,0.02682 0.212397,0.04437 0.314442,0.08204 0.09355,0.03362 0.190481,0.05732 0.28517,0.08759 0.09325,0.02072 0.183222,0.05209 0.276945,0.07062 0.09471,0.02175 0.193127,0.02817 0.285705,0.06037 0.08354,0.01926 0.165764,0.04259 0.251899,0.04714 0.07381,0.0122 0.146415,0.03376 0.221798,0.02757 0.08361,2.3e-5 0.167404,7.93e-4 0.250817,-0.0058 0.0639,-0.0075 0.120429,-0.02598 0.175971,-0.05967 0.004,-0.0024 0.0096,-0.01622 0.0075,-0.01196 -0.05415,0.11221 -0.04204,0.117132 -0.02487,0.06298 0.02357,-0.07855 -0.0074,-0.170551 0.0024,-0.251299 -0.0024,-0.0891 -0.0079,-0.178125 -0.0084,-0.26725 -0.01902,-0.09381 -0.0465,-0.183716 -0.03478,-0.280892 -5.29e-4,-0.06773 0.0016,-0.136941 -0.01693,-0.202732 -0.01125,-0.03188 -0.02577,-0.06264 -0.03513,-0.09513 -0.01482,-0.05141 -0.01368,-0.108315 -0.04371,-0.15572 -0.04502,-0.110138 -0.06708,-0.229111 -0.09,-0.345644 -0.02685,-0.08592 -0.04693,-0.174535 -0.05888,-0.263673 -0.02217,-0.08464 -0.05687,-0.164769 -0.07354,-0.251034 -0.04176,-0.11348 -0.08572,-0.226841 -0.115817,-0.344035 -0.0285,-0.121944 -0.06316,-0.241208 -0.104606,-0.359238 -0.02246,-0.114353 -0.05346,-0.225391 -0.08936,-0.336233 -0.03525,-0.119292 -0.07899,-0.236013 -0.135614,-0.346966 -0.04569,-0.114695 -0.113295,-0.221467 -0.169807,-0.331164 -0.08035,-0.137691 -0.144516,-0.283469 -0.213813,-0.426886 -0.08226,-0.179277 -0.170566,-0.355484 -0.260982,-0.530604 -0.08974,-0.182242 -0.187582,-0.359881 -0.284967,-0.538109 -0.103817,-0.182496 -0.222115,-0.354679 -0.337447,-0.529823 -0.119602,-0.200152 -0.228394,-0.406461 -0.338288,-0.611963 -0.111742,-0.214304 -0.226089,-0.427114 -0.333759,-0.64354 -0.123405,-0.240553 -0.243823,-0.482824 -0.353646,-0.729868 -0.100764,-0.237805 -0.211561,-0.471305 -0.294905,-0.71615 -0.06559,-0.169413 -0.143087,-0.334561 -0.19781,-0.507842 -0.261181,-0.406601 0.09821,-0.637452 0.359386,-0.230851 z"
         inkscape:connector-curvature="0" />
      <path
         style="opacity:1;fill:#000000;fill-opacity:1;fill-rule:nonzero;stroke:none;stroke-width:10.58333302;stroke-linecap:round;stroke-linejoin:miter;stroke-miterlimit:4;stroke-dasharray:none;stroke-dashoffset:0;stroke-opacity:1;paint-order:stroke markers fill"
         id="path1147"
         d="m 60.147505,84.189267 c -0.04442,0.02633 -0.160501,0.08282 -0.158405,0.140716 0.112894,-0.158406 -0.0013,-0.04567 0.07092,-0.02196 0.07016,0.01982 0.149629,0.03578 0.205858,-0.02191 0.006,-0.03704 0.03149,-0.06612 0.04528,-0.09956 0.0058,-0.01397 0.02214,-0.05455 0.01153,-0.04383 -0.0163,0.01643 -0.01701,0.04351 -0.03012,0.06259 -0.0091,0.01331 0.01201,-0.02998 0.01802,-0.04496 0.01685,-0.04039 0.02522,-0.06813 -0.01839,-0.08759 -0.05635,-0.02863 -0.118416,-0.0499 -0.182057,-0.05261 -0.06739,0.0087 -0.0019,-0.0058 -0.01122,0.01429 -0.0045,0.0096 -0.01815,0.01132 -0.02604,0.01847 -0.01262,0.01143 -0.01953,0.04212 -0.02703,0.05618 -0.0181,0.05506 -0.0098,0.0245 0.03281,-0.0482 0.0045,-0.0076 -0.0085,0.01553 -0.01183,0.02368 -0.01286,0.03114 -0.01728,0.06386 -0.02201,0.09692 -0.03605,-0.05012 0.009,-0.03046 0.04651,-0.02212 0.02183,-0.0092 0.06669,-0.01728 0.07722,-0.04343 0.0048,-0.01199 -0.0035,-0.0258 -0.0026,-0.03869 -0.01431,0.04707 0.05712,-0.09498 0.04442,-0.07033 -0.06669,0.129503 -0.03734,0.03441 -0.01847,0.09192 -0.0039,0.0019 0.0082,0.0097 0.0051,0.01331 -0.0013,0.0016 -0.0069,-0.0011 -0.0062,0.0011 0.0054,0.01349 0.04789,0.01849 0.05871,0.0205 0.07135,0.0046 0.02548,0.02482 0.09005,-0.08055 0.0033,-0.0053 -0.0029,0.01251 -0.0067,0.01746 -0.01341,0.01759 -0.0032,-0.04502 -0.0079,0.01617 -0.06444,-0.06755 -0.06024,-0.05908 -0.157681,-0.05582 -0.02633,0.01233 -0.05267,0.02463 -0.079,0.03695 0.308877,-0.32828 0.599038,-0.05527 0.290163,0.273012 v 0 c -0.03198,0.02228 -0.06397,0.04454 -0.09596,0.06682 -0.03502,0.0048 -0.06982,0.01185 -0.105069,0.01453 -0.131622,0.01 -0.230309,-0.114501 -0.265705,-0.225618 -0.0055,-0.03934 -0.01524,-0.097 -0.01273,-0.135538 0.0094,-0.143007 0.102138,-0.267986 0.225021,-0.332317 0.03013,-0.0084 0.05933,-0.02143 0.09038,-0.02508 0.153194,-0.01797 0.27901,0.06827 0.357369,0.192598 0.08889,0.235669 0.03239,0.314357 -0.106441,0.521123 -0.02143,0.02294 -0.04024,0.04865 -0.06429,0.06884 -0.127248,0.106831 -0.292322,0.139224 -0.451366,0.09928 -0.182578,-0.06292 -0.304207,-0.16298 -0.342897,-0.360698 0.01164,-0.16577 0.04511,-0.322985 0.159335,-0.453843 0.102058,-0.108349 0.217434,-0.182745 0.371419,-0.187412 0.151059,-0.0027 0.296699,0.03675 0.421651,0.12428 0.15362,0.138009 0.231852,0.257003 0.21595,0.472562 -0.03618,0.17894 -0.12161,0.375846 -0.268817,0.494623 -0.0314,0.02535 -0.06778,0.04378 -0.101666,0.06568 -0.243874,0.08695 -0.398597,0.08202 -0.623699,-0.05515 -0.03005,-0.02646 -0.06344,-0.04954 -0.09016,-0.07935 -0.09311,-0.103897 -0.164512,-0.293465 -0.109543,-0.431925 0.02766,-0.06966 0.07127,-0.131881 0.106911,-0.197821 0.138859,-0.143748 0.279242,-0.239217 0.488749,-0.207737 0.475769,0.03327 0.446362,0.453792 -0.02941,0.420523 z"
         inkscape:connector-curvature="0" />
      <path
         style="opacity:1;fill:#000000;fill-opacity:1;fill-rule:nonzero;stroke:none;stroke-width:10.58333302;stroke-linecap:round;stroke-linejoin:miter;stroke-miterlimit:4;stroke-dasharray:none;stroke-dashoffset:0;stroke-opacity:1;paint-order:stroke markers fill"
         id="path1151"
         d="m 66.848253,84.937366 c -0.167315,0.0619 -0.346351,-0.0029 -0.516753,0.02655 -0.01236,0.0078 -0.06576,0.03996 -0.07663,0.05155 -0.01797,0.01916 -0.05,0.08175 -0.02469,0.07479 0.02196,-0.006 0.01926,-0.06249 0.0407,-0.05484 0.02056,0.0073 -0.01185,0.04201 -0.01778,0.06302 -0.01257,0.107622 -0.02511,0.240287 0.05242,0.329589 0.01347,0.0155 0.03146,0.02635 0.04719,0.03953 0.151281,0.09197 0.261453,0.0662 0.418238,0.0095 0.04641,-0.03765 0.09769,-0.07033 0.123658,-0.126495 0.0072,-0.01569 0.02951,-0.05998 0.01582,-0.04942 -0.01783,0.01373 -0.01569,0.04316 -0.03011,0.06045 -0.01207,0.01447 0.01521,-0.03448 0.02283,-0.05172 0.01373,-0.04503 0.01572,-0.0924 5.29e-4,-0.137494 -0.0039,-0.01159 -0.01923,-0.01511 -0.02894,-0.02252 -0.08635,-0.02756 -0.177541,-0.04145 -0.267549,-0.05224 -0.0072,1.67e-4 -0.08145,0.0073 -0.0767,0.02564 0.0079,0.03039 0.02474,-0.04119 0.0021,0.02548 -7.94e-4,0.0066 -0.0063,0.02506 -0.0024,0.01968 0.06248,-0.08708 0.03962,-0.11086 0.0428,-0.01212 0.0016,0.0131 -0.0091,-0.0086 -0.0057,-0.0088 0.0096,-5.29e-4 0.0172,0.0089 0.0264,0.01177 0.03317,0.01032 0.06605,0.0159 0.100322,0.01185 0.0078,-0.0013 0.01699,7.94e-4 0.02326,-0.0038 0.008,-0.0061 2.62e-4,-0.0208 0.0048,-0.02978 0.0047,-0.0095 0.01365,-0.01675 0.0173,-0.02669 0.0071,-0.01937 0.0055,-0.04094 0.0097,-0.06112 -0.05627,0.124368 -0.01069,0.015 -1.48e-4,-0.0071 0.0011,-0.0021 0.0093,0.0047 0.0097,0.0049 -0.02902,0.0031 -0.06387,-0.01087 -0.09469,-0.0046 0.04931,0.10569 0.129892,-0.182058 0.08955,-0.01839 0.0016,0.02569 -0.01326,0.107448 0.02066,0.120611 0.04673,0.0031 -0.07212,-0.01794 -0.07691,-0.01902 -0.09729,0.219771 -0.0186,-0.04322 -0.0079,-0.08703 0.04584,-0.05556 0.07162,-0.137604 0.137512,-0.166682 0.152723,-0.06739 0.26634,0.07254 0.331349,0.177633 0.01574,0.01691 0.02368,0.0511 0.04379,0.06305 0.414377,0.249772 0.193609,0.616035 -0.220769,0.366263 v 0 c -0.06604,-0.04415 -0.130378,-0.09132 -0.165547,-0.165275 -0.02381,-0.03705 -0.05307,-0.09682 -0.04538,-0.100325 0.01183,-0.0054 0.02289,0.01408 0.03582,0.01527 0.218962,0.02014 0.145889,0.02794 0.286094,-0.153718 7.93e-4,-0.008 -0.0013,-0.03116 0.0021,-0.024 0.01849,0.03665 -0.0061,0.186719 -0.02096,0.22244 -0.02315,0.05561 -0.0538,0.107802 -0.0807,0.161703 -0.01969,0.01987 -0.03689,0.04257 -0.05906,0.05964 -0.126783,0.09757 -0.289441,0.08881 -0.419817,0.0057 -0.140382,-0.115708 -0.20774,-0.238646 -0.211762,-0.423325 0.0011,-0.03074 -7.94e-4,-0.06175 0.0035,-0.09222 0.02767,-0.19939 0.170489,-0.351631 0.366913,-0.375335 0.153684,-0.0065 0.297895,0.03473 0.412163,0.142618 0.01976,0.0254 0.04287,0.04854 0.05931,0.07621 0.10432,0.175556 0.04305,0.358272 -0.04775,0.523243 -0.115834,0.180636 -0.259778,0.280564 -0.481576,0.277564 -0.181179,-0.03558 -0.343889,-0.109855 -0.440933,-0.276442 -0.01066,-0.02698 -0.0244,-0.05294 -0.032,-0.08094 -0.04494,-0.165507 0.01378,-0.337944 0.124391,-0.463788 0.113157,-0.105741 0.246036,-0.168714 0.403929,-0.164986 0.173074,0.009 0.342238,0.03538 0.485124,0.142425 0.186817,0.162161 0.246856,0.293158 0.229182,0.543391 -0.0536,0.302524 -0.226359,0.543377 -0.508839,0.666197 -0.04464,0.01408 -0.08818,0.03227 -0.133911,0.04226 -0.262448,0.0573 -0.517927,-0.0069 -0.729617,-0.168883 -0.0366,-0.03605 -0.07629,-0.0692 -0.109792,-0.108143 -0.16996,-0.197533 -0.209566,-0.444286 -0.158136,-0.694415 0.09462,-0.305999 0.230939,-0.505103 0.543589,-0.593667 0.211574,-0.04213 0.435554,-0.06207 0.636368,0.03364 0.487849,0.08589 0.411932,0.517091 -0.07592,0.431202 z"
         inkscape:connector-curvature="0" />
      <path
         style="opacity:1;fill:#000000;fill-opacity:1;fill-rule:nonzero;stroke:none;stroke-width:10.58333302;stroke-linecap:round;stroke-linejoin:miter;stroke-miterlimit:4;stroke-dasharray:none;stroke-dashoffset:0;stroke-opacity:1;paint-order:stroke markers fill"
         id="path1153"
         d="m 60.994899,91.253182 c -0.04462,0.105322 -0.191288,0.222804 -0.195362,0.340108 -5.3e-4,0.01508 0.01691,-0.025 0.02535,-0.0375 -0.06002,0.19262 -0.08044,0.271222 0.0208,0.447575 0.04211,0.0549 0.118008,0.104365 0.192293,0.08866 0.01389,-0.0029 0.104513,-0.06038 0.106309,-0.06148 0.07554,-0.04292 0.121108,-0.114064 0.173802,-0.180144 0.05738,-0.07195 0.101116,-0.132837 0.138237,-0.216964 -0.007,0.01693 -0.02588,0.06839 -0.02087,0.05079 0.01569,-0.05507 0.07476,-0.145976 0.04252,-0.203957 -0.0046,-0.0063 -0.0075,-0.01434 -0.01384,-0.01886 -0.0083,-0.0058 -0.01908,-0.0068 -0.0283,-0.01101 -0.07283,-0.03313 -0.143912,-0.06455 -0.221337,-0.08565 -0.05448,-0.01519 -0.118893,-0.03104 -0.174736,-0.0085 -0.01728,0.007 -0.02604,0.02661 -0.03941,0.03956 -0.0061,0.0077 -0.01333,0.01463 -0.01826,0.02315 -0.0019,0.003 -0.02924,0.06819 -0.03019,0.07011 -0.0083,0.01675 -0.03938,0.06322 -0.02698,0.04921 0.03605,-0.04073 0.04793,-0.104365 0.02439,-0.01392 -0.01712,0.09394 -0.0159,0.200552 0.0052,0.294333 0.0019,0.0057 0.0028,0.01175 0.0052,0.01725 0.0019,0.0044 0.0058,-0.0096 0.01066,-0.0097 0.0099,-1.56e-4 0.01947,0.0035 0.02933,0.0043 0.04013,0.0032 0.04054,0.0016 0.07823,-0.0021 0.06693,-0.02125 0.114965,-0.100414 0.133554,-0.166031 0.0647,-0.138948 0.0029,-0.0024 -0.0064,0.0019 -0.01693,0.0078 0.01474,-0.03423 0.02141,-0.05162 0.0149,-0.03891 0.02201,-0.07441 0.03014,-0.114645 -0.0021,-0.05605 -0.05809,-0.08535 -0.106401,-0.100482 -0.04554,-0.0075 -0.137989,-0.0595 -0.173265,-0.0085 -0.0037,0.0056 -0.01061,0.01013 -0.01122,0.01685 -5.3e-4,0.006 0.0054,0.01082 0.0081,0.01622 2.8e-5,0.0076 0.0011,0.01535 8.2e-5,0.02291 -0.0021,0.01508 -0.02199,0.05377 -0.0097,0.04468 0.02082,-0.01543 0.04841,-0.123579 0.01714,-0.01371 -0.0048,0.04184 -0.03758,0.120017 -0.0064,0.155903 0.01072,0.0081 0.05504,0.03472 0.06793,0.02506 0.005,-0.0037 -0.01098,-0.0068 -0.01421,-0.01209 -0.0024,-0.0039 -0.0011,-0.009 -0.0013,-0.0136 0.04532,-0.05404 0.07179,-0.115171 0.09559,-0.180832 -0.06318,0.157088 -0.0088,-0.01159 0.01061,-0.03978 -0.0043,-0.0011 -0.08743,-0.0457 -0.03973,-0.01942 0.114651,0.01916 0.07193,0.01654 0.138953,-0.081 0.0051,-0.0075 -0.0057,0.01736 -0.007,0.02635 -0.0019,0.01278 -0.0016,0.0258 -0.0024,0.03868 0.0074,0.05503 -0.02143,0.113496 -0.01228,0.163939 -0.06354,-0.05082 -0.122041,-0.05232 -0.197925,-0.04277 -0.0077,0.0011 -0.0186,-0.0053 -0.02336,7.93e-4 -0.02,0.02593 -0.02982,0.05832 -0.04472,0.08747 0.01238,-0.01529 7.93e-4,-0.09373 0.01738,-0.09743 0.0039,-7.94e-4 0.005,0.0063 0.0079,0.009 0.0061,0.0059 0.01265,0.01138 0.019,0.01707 0.07529,0.05021 0.127299,0.10319 0.242226,0.03752 0.04894,-0.02797 0.05648,-0.09762 0.08706,-0.144965 2.06e-4,-2.65e-4 0.0075,0.03052 0.0066,0.0492 -0.06177,-0.05243 -0.200582,-0.0947 -0.265992,-0.0296 -0.02742,0.02729 -0.03741,0.06774 -0.05612,0.101605 0.134073,-0.226079 0.01476,-0.212122 0.415621,-0.05069 5.3e-4,2.17e-4 0.01437,0.06698 0.01672,0.07563 0.01169,0.04143 0.0099,0.02516 0.01148,0.04767 0.224401,0.423175 -0.149636,0.62152 -0.374037,0.198345 v 0 c -0.02858,-0.06602 -0.02122,-0.03584 -0.02906,-0.08855 -0.05617,-0.249703 -0.0058,-0.0084 0.316132,-0.06513 0.04375,-0.0077 0.03581,-0.08175 0.05998,-0.119033 0.0057,-0.0088 -0.0021,0.02085 -0.0031,0.03128 -0.02439,0.05219 -0.03804,0.110924 -0.07318,0.156583 -0.02365,0.03075 -0.05944,0.05442 -0.09692,0.06446 -0.150911,0.04042 -0.266695,-0.03987 -0.325258,-0.169461 -0.03261,-0.122266 -0.03473,-0.295857 0.08109,-0.385548 0.05406,-0.04187 0.134334,-0.03781 0.202512,-0.03263 0.03638,0.0028 0.063,0.0368 0.09451,0.05521 0.11268,0.133408 0.102881,0.213915 0.07064,0.37443 -0.02254,0.05268 -0.03957,0.10808 -0.06763,0.158041 -0.01297,0.02307 -0.03276,0.04239 -0.05389,0.05833 -0.121079,0.09133 -0.263171,0.06955 -0.370625,-0.03025 -0.08521,-0.118374 -0.13124,-0.24588 -0.1064,-0.393361 0.03347,-0.22498 0.09896,-0.417264 0.351726,-0.447686 0.187383,0.0186 0.277553,0.07354 0.390038,0.227214 0.102203,0.230651 0.0592,0.336749 -0.04502,0.561964 -0.08358,0.136996 -0.191976,0.258012 -0.347966,0.311219 -0.03156,0.0063 -0.06257,0.01664 -0.09467,0.01884 -0.139459,0.0094 -0.266057,-0.05251 -0.367387,-0.143526 -0.138216,-0.16373 -0.167859,-0.270735 -0.145267,-0.484399 0.05537,-0.207606 0.14224,-0.403686 0.347372,-0.495811 0.02838,-0.0098 0.05589,-0.02262 0.08514,-0.02937 0.133839,-0.03094 0.273346,0.0016 0.399102,0.0475 0.176708,0.09138 0.301657,0.200011 0.355796,0.399698 0.0058,0.03125 0.01513,0.06205 0.01728,0.09376 0.01273,0.188529 -0.07704,0.368861 -0.169207,0.525767 -0.138477,0.18108 -0.275524,0.282622 -0.511318,0.295312 -0.195929,-0.01312 -0.375592,-0.07896 -0.483084,-0.254667 -0.08551,-0.181115 -0.113927,-0.344683 -0.08455,-0.545807 0.06779,-0.208827 0.170296,-0.400444 0.356303,-0.523957 0.170329,-0.08479 0.350912,-0.116294 0.537845,-0.06553 0.198303,0.06203 0.385059,0.145817 0.509067,0.32154 0.01799,0.03601 0.03971,0.07038 0.054,0.108014 0.08187,0.215585 0.0117,0.438546 -0.07803,0.638106 -0.135554,0.253852 -0.312281,0.473921 -0.588586,0.582342 -0.05108,0.01299 -0.101046,0.03168 -0.153252,0.03893 -0.263228,0.03655 -0.499657,-0.06787 -0.675679,-0.260348 -0.02885,-0.04149 -0.06243,-0.08008 -0.08655,-0.124486 -0.122299,-0.225086 -0.123108,-0.483333 -0.05024,-0.723045 0.03644,-0.08332 0.06776,-0.169067 0.109325,-0.249944 0.08753,-0.170284 0.248293,-0.319911 0.433727,-0.370359 0.440771,-0.178168 0.598251,0.211423 0.15748,0.389591 z"
         inkscape:connector-curvature="0" />
      <path
         style="opacity:1;fill:#ff7f2a;fill-opacity:1;fill-rule:nonzero;stroke:none;stroke-width:10.58333302;stroke-linecap:round;stroke-linejoin:miter;stroke-miterlimit:4;stroke-dasharray:none;stroke-dashoffset:0;stroke-opacity:1;paint-order:stroke markers fill"
         id="path1324"
         d="m -0.63676929,74.381944 c -0.0894982,-0.15566 -0.19773074,-0.301956 -0.26849469,-0.466979 -0.66648422,-1.554245 -0.70282922,-3.69879 -0.81848532,-5.368301 -0.129248,-2.61103 -0.056528,-5.226396 -0.084011,-7.839347 0.011685,-2.235213 0.136891,-4.466802 0.2112833,-6.700009 0.04533,-1.607024 0.1681618,-3.210849 0.2277952,-4.817002 0.094752,-1.335397 0.1715216,-2.6729 0.288538,-4.006503 0.11390883,-1.305444 0.26161234,-2.611774 0.49799977,-3.901186 0.15745936,-0.975887 0.37720745,-1.938647 0.61665109,-2.897029 0.16479141,-0.54833 0.30955686,-1.114287 0.61583799,-1.607262 C 0.70899167,36.683931 1.027456,36.442345 1.1257702,36.364595 1.4709715,36.073214 1.812202,35.786832 2.1744518,35.51737 2.63575,35.245682 3.0776619,34.940859 3.5192467,34.638234 c 0.5148881,-0.392026 1.0806588,-0.698839 1.6902747,-0.912961 0.4893636,-0.27441 1.0021139,-0.511768 1.5245633,-0.71736 0.5124712,-0.199419 1.0386621,-0.376832 1.5761729,-0.496159 0.4778245,-0.20795 0.9596527,-0.423977 1.4500759,-0.604528 0.5738845,-0.167561 1.1664595,-0.286309 1.7586035,-0.373301 0.45612,-0.02726 0.896355,-0.129693 1.334405,-0.249396 0.426219,-0.106156 0.837706,-0.266295 1.259876,-0.38871 0.491647,-0.204946 1.001306,-0.358712 1.510101,-0.515372 0.65872,-0.18684 1.338833,-0.276645 2.004569,-0.434318 0.754474,-0.143891 1.514918,-0.263885 2.27692,-0.362178 0.834033,-0.05659 1.658187,-0.193863 2.485248,-0.310732 0.941718,-0.09633 1.881402,-0.05552 2.818251,0.05402 0.711454,0.02868 1.387607,0.243953 2.078857,0.38568 0.623319,0.118504 1.239195,0.273264 1.861034,0.396666 0.69491,0.169947 1.387986,0.32349 2.097649,0.416671 0.754925,0.133353 1.497052,0.316976 2.233975,0.52574 0.641638,0.251963 1.290949,0.485334 1.902989,0.804244 0.524232,0.239728 0.985382,0.58701 1.499999,0.843595 0.484246,0.238249 0.915379,0.561699 1.355524,0.869764 0.499661,0.23276 0.910971,0.594892 1.34375,0.928278 0.437481,0.331454 0.856827,0.68681 1.235223,1.084746 0.388239,0.352679 0.729155,0.746242 1.068727,1.144487 0.313533,0.40495 0.584284,0.838632 0.796906,1.304285 0.192765,0.443685 0.243623,0.922457 0.318643,1.394444 0.07591,0.428562 0.112855,0.861965 0.133501,1.296244 0.04949,0.393123 0.123552,0.779976 0.148341,1.176441 0.0085,0.470823 -0.04371,0.945811 -0.13676,1.407213 -0.08491,0.485351 -0.271074,0.93967 -0.427419,1.403712 -0.184981,0.423029 -0.369424,0.838616 -0.499938,1.28275 -0.165621,0.522481 -0.347745,1.039485 -0.529116,1.556989 -0.248727,0.703074 -0.674852,1.312928 -1.120458,1.901782 -0.288912,0.518372 -0.696201,0.947473 -1.106297,1.369624 -0.425347,0.494326 -0.865828,0.977035 -1.329957,1.435457 -0.546616,0.446823 -1.030999,0.967002 -1.606037,1.37637 -0.571219,0.433523 -1.200496,0.793253 -1.817396,1.15996 -0.618125,0.357497 -1.279904,0.647862 -1.960563,0.863386 -0.601509,0.252185 -1.169987,0.5804 -1.774602,0.824741 -0.708041,0.309649 -1.397072,0.65574 -2.133487,0.892907 -0.718394,0.158081 -1.415441,0.388041 -2.109792,0.626698 -0.641293,0.239752 -1.286725,0.478348 -1.960867,0.606689 -0.525961,0.120058 -1.027362,0.292209 -1.500821,0.550424 -0.567705,0.297436 -1.073829,0.6936 -1.643884,0.984705 -0.581857,0.319008 -1.120086,0.717642 -1.669629,1.090887 -0.526545,0.411451 -0.968267,0.911059 -1.424666,1.395717 -0.283541,0.318603 -0.589477,0.631942 -0.845534,0.974447 -0.103479,0.138414 -0.181355,0.29427 -0.275123,0.439439 -0.183366,0.344101 -0.323956,0.708408 -0.486549,1.063641 -0.02739,0.05983 0.116209,-0.235009 0.07837,-0.181176 -0.04884,0.06948 -0.0746,0.152585 -0.111903,0.22888 -0.193801,0.484743 -0.365303,0.972635 -0.492752,1.478727 -0.109615,0.50954 -0.216806,1.015595 -0.291154,1.531872 -0.05333,0.4456 -0.07464,0.891733 -0.154234,1.333888 -0.06515,0.417537 -0.157952,0.831525 -0.285292,1.234618 -0.151758,0.599479 -0.396651,1.146857 -0.666265,1.702003 -0.247163,0.460635 -0.457576,0.93803 -0.737941,1.380165 -0.270543,0.453287 -0.665459,0.800899 -1.000491,1.199922 -0.337488,0.329552 -0.699053,0.62628 -1.067933,0.918107 -0.408746,0.261371 -0.797036,0.544785 -1.228514,0.7688 -0.473619,0.288361 -0.9875231,0.493284 -1.4942136,0.714526 -0.5574803,0.242165 -1.140051,0.393311 -1.7357281,0.50487 -0.5176438,0.02756 -1.0320266,0.08228 -1.5492248,0.113559 C 5.6854486,78.055564 5.198043,77.961767 4.710952,77.856703 4.3302359,77.787253 3.9470785,77.757694 3.5673072,77.681205 3.2110023,77.649035 2.8898223,77.486117 2.5427607,77.414802 2.1719402,77.304211 1.8567409,77.097839 1.5513472,76.867889 1.3526166,76.669611 1.1119752,76.528918 0.89258689,76.355616 0.55478235,76.108945 0.29649277,75.783304 0.06721312,75.437687 c -0.2070809,-0.327345 -0.30879672,-0.698799 -0.44639085,-1.05528 -0.15121377,-0.392049 -0.28501755,-0.799709 -0.27974239,-1.224344 -0.0219623,-0.174373 -0.0599365,-0.346202 -0.0929134,-0.518702 -0.63184308,-1.864905 1.0165164,-2.423382 1.64835954,-0.558475 v 0 c 0.02632,0.171768 0.0581238,0.34221 0.11073748,0.508358 0.02226,0.0836 0.052513,0.16547 0.06678,0.250801 0.038909,0.232714 -0.04926,0.476189 0.054021,0.69896 0.1244129,0.282565 0.2455012,0.562721 0.3244177,0.861862 0.1085638,0.232725 0.3316821,0.394851 0.4623311,0.616423 0.1791973,0.17969 0.4454223,0.264097 0.6021297,0.469392 0.1475423,0.110223 0.280279,0.228325 0.4707268,0.259517 0.3296193,0.08156 0.653314,0.178014 0.9920637,0.217694 0.377422,0.07491 0.761573,0.0868 1.1404097,0.155974 0.372795,0.0649 0.7424568,0.114007 1.1227443,0.09122 0.4564684,-0.008 0.9109062,-0.143322 1.3682871,-0.167857 0.4814261,-0.06172 0.9024475,-0.288885 1.3586225,-0.445069 0.4748641,-0.199125 0.9433787,-0.410972 1.4117539,-0.62476 0.343109,-0.168662 0.65409,-0.403913 0.964121,-0.625184 0.282669,-0.223086 0.583683,-0.447853 0.800103,-0.735637 0.286262,-0.355013 0.533798,-0.736246 0.780767,-1.119743 0.248748,-0.432959 0.487462,-0.871747 0.750323,-1.29643 -0.04256,0.108374 -0.0835,0.217393 -0.127667,0.325123 -0.03302,0.08055 0.05887,-0.164023 0.09423,-0.243573 0.06892,-0.155035 0.149894,-0.308588 0.203773,-0.470553 0.02296,-0.06901 0.03516,-0.141153 0.05274,-0.211728 0.107666,-0.335351 0.237416,-0.668163 0.280882,-1.019016 0.02393,-0.159941 0.07685,-0.332798 0.08833,-0.4933 0.01694,-0.236937 -0.02636,-0.478335 -0.0036,-0.71556 0.02051,-0.574498 0.08246,-1.151707 0.239205,-1.70639 0.09725,-0.597734 0.293834,-1.167906 0.496659,-1.736741 0.233665,-0.797605 0.627896,-1.556356 1.067526,-2.259203 0.376994,-0.597138 0.822689,-1.144911 1.294494,-1.669624 0.524214,-0.57199 1.096259,-1.109361 1.737235,-1.54903 0.581588,-0.425032 1.194148,-0.806953 1.833811,-1.13897 0.569617,-0.358127 1.145279,-0.720469 1.763531,-0.987896 0.595999,-0.249037 1.202347,-0.484989 1.835289,-0.621964 0.613912,-0.1812 1.187496,-0.451326 1.789866,-0.665536 0.69444,-0.23232 1.390652,-0.45507 2.101458,-0.63279 0.675909,-0.252225 1.3106,-0.603396 2.000914,-0.81977 0.618807,-0.303453 1.261377,-0.560556 1.896911,-0.825285 0.578766,-0.240427 1.153171,-0.484513 1.680144,-0.8303 0.569002,-0.303009 1.103715,-0.649795 1.618104,-1.038659 0.478253,-0.407442 0.95453,-0.817067 1.406475,-1.254027 0.436674,-0.459428 0.892125,-0.89993 1.338125,-1.350079 0.347067,-0.387363 0.675423,-0.785341 0.981109,-1.207042 0.1314,-0.195823 0.254508,-0.394891 0.371827,-0.59957 0.03487,-0.06083 0.10676,-0.253801 0.10223,-0.183835 -0.0055,0.08543 -0.09506,0.149191 -0.105487,0.234162 -0.009,0.07344 0.06734,-0.131773 0.10101,-0.197662 0.202872,-0.509014 0.364242,-1.032995 0.553609,-1.546596 0.18795,-0.423971 0.316265,-0.875667 0.547439,-1.278482 0.159258,-0.388147 0.24565,-0.805485 0.438002,-1.181659 0.02392,-0.109677 0.06383,-0.215939 0.08103,-0.326868 0.04186,-0.270024 0.0181,-0.552773 0.109249,-0.815536 0.116975,-0.329584 -0.135694,-0.740167 -0.134882,-1.075611 -0.01352,-0.366657 -0.03971,-0.733184 -0.116745,-1.092885 -0.01635,-0.08366 -0.08359,-0.42172 -0.09184,-0.4924 -0.02286,-0.196004 0.02872,-0.396142 -0.05878,-0.583713 -0.13847,-0.337013 -0.350938,-0.63803 -0.571976,-0.925727 C 40.26094,37.640331 39.927563,37.2976 39.570119,36.974938 39.23174,36.649673 38.93519,36.279444 38.535688,36.019277 38.105121,35.717686 37.669005,35.424805 37.243423,35.115804 36.833544,34.845294 36.426787,34.567325 35.985335,34.349637 35.51689,34.048012 34.977185,33.85735 34.497755,33.570055 33.996372,33.301749 33.449457,33.116049 32.903915,32.959243 32.210299,32.779046 31.502351,32.646342 30.795763,32.528012 30.09104,32.36206 29.380332,32.226374 28.688759,32.007841 28.05781,31.878158 27.437237,31.704168 26.801679,31.59869 26.186607,31.454867 25.581304,31.325121 24.94368,31.349857 c -0.860167,-0.01783 -1.717006,0.08686 -2.576883,0.101277 -0.796229,-0.0059 -1.58686,0.0661 -2.37705,0.161137 -0.724653,0.100671 -1.449472,0.204398 -2.169546,0.333806 -0.627014,0.105749 -1.263028,0.159269 -1.882246,0.305263 -0.505794,0.138081 -1.006259,0.284885 -1.507791,0.437679 -0.421658,0.130969 -0.851205,0.229346 -1.265722,0.384257 -0.485389,0.153834 -0.980289,0.235302 -1.48153,0.311724 -0.494514,0.119179 -0.995996,0.208831 -1.477108,0.378423 -0.5338252,0.210376 -1.0808412,0.393684 -1.6251653,0.572297 -0.4715967,0.150772 -0.9398915,0.302887 -1.3900475,0.511638 -0.506644,0.196278 -0.9776155,0.463978 -1.4761596,0.677891 -0.485217,0.27218 -0.9531662,0.572432 -1.4263642,0.864328 -0.4279331,0.265054 -0.8951066,0.457393 -1.3007875,0.756208 -0.329402,0.239543 -0.6456019,0.497081 -0.9872532,0.719979 -0.011987,0.01553 -0.035761,0.02698 -0.035961,0.0466 -1.351e-4,0.01328 0.028646,0.02996 0.035299,0.01847 0.063318,-0.109369 0.084078,-0.241274 0.1544611,-0.346234 0.03085,-0.04601 -0.024267,0.108233 -0.03168,0.163129 -0.026856,0.19889 -0.032017,0.400351 -0.065708,0.598487 -0.1200586,0.934718 -0.1516977,1.879547 -0.2849815,2.813108 -0.1559255,1.256155 -0.3305605,2.509332 -0.4453404,3.770292 -0.1227435,1.297575 -0.2206484,2.59662 -0.2252886,3.900752 -0.078902,1.555557 0.069819,3.106197 0.1186455,4.661066 0.072605,2.203762 0.1954108,4.405837 0.2165872,6.611353 -0.010388,2.585696 0.088524,5.170233 0.104397,7.755533 -0.00825,1.237869 0.025915,2.482172 -0.068222,3.7177 -0.048272,0.63356 -0.1056232,1.228121 -0.2993356,1.833483 -0.049462,0.154572 -0.1378077,0.293878 -0.20671148,0.440817 0.60146918,1.813541 -1.00148865,2.345169 -1.60295787,0.53163 z"
         inkscape:connector-curvature="0" />
      <path
         style="opacity:1;fill:#ff7f2a;fill-opacity:1;fill-rule:nonzero;stroke:none;stroke-width:28.28427124;stroke-linecap:round;stroke-linejoin:miter;stroke-miterlimit:4;stroke-dasharray:none;stroke-dashoffset:0;stroke-opacity:1;paint-order:stroke markers fill"
         d="m 91.792474,117.84506 c -22.444653,0.41636 -44.6172,5.75281 -65.506811,13.73749 -6.682915,2.98915 -13.371904,6.49334 -18.9427283,11.17422 -2.9521735,20.13933 -3.8837601,40.48681 -3.3932839,60.82361 -0.0083,23.79974 1.2624732,47.68312 0.3273132,71.43297 -2.0260528,6.94662 4.9335674,12.26842 11.176982,12.89227 15.799213,3.41046 34.049719,-6.13036 37.90169,-22.35927 1.880731,-9.61889 2.311748,-20.0203 8.170737,-28.33558 8.207131,-12.07936 21.579931,-19.61376 35.332097,-23.63225 12.21409,-4.47924 25.00928,-8.29239 35.9241,-15.54589 8.01108,-6.70279 16.85786,-13.63202 20.18431,-23.9781 2.62166,-6.31484 5.77427,-12.9205 4.09262,-19.94135 -0.27386,-5.03813 -1.37358,-10.2913 -5.6227,-13.53457 -11.2541,-11.60587 -26.89313,-17.62924 -42.59286,-20.15558 -5.62822,-1.17852 -11.240187,-2.82011 -17.051466,-2.57797 z"
         id="path1326"
         inkscape:connector-curvature="0"
         transform="scale(0.26458333)" />
    </g>
    <path
       style="opacity:1;fill:#ffffd6;fill-opacity:1;fill-rule:nonzero;stroke:none;stroke-width:10;stroke-linecap:round;stroke-linejoin:miter;stroke-miterlimit:4;stroke-dasharray:none;stroke-dashoffset:0;stroke-opacity:1;paint-order:stroke markers fill"
       d="m 570.78348,173.47817 c -1.37468,0.56069 -1.1214,2.54536 -1.65062,3.72492 -3.36406,12.48094 -9.97663,23.86093 -18.35581,33.65177 -0.97829,0.82883 -1.81672,2.30353 -3.17277,2.42067 -2.20998,-1.07574 -2.90727,-3.7391 -3.60261,-5.88925 -0.83639,-2.54026 -0.49611,-5.18803 -0.90276,-7.77725 -0.95385,-1.30309 -2.08958,0.55421 -2.81787,1.17285 -4.84004,4.92084 -9.70466,10.30805 -16.2422,12.9413 -1.20215,0.29309 -2.89396,0.64865 -2.81639,2.24083 -0.32786,2.49793 -3.12465,3.53933 -4.22656,5.54101 0.9167,2.56406 0.74664,5.34015 0.95394,7.98439 0.98943,1.17016 2.94799,0.87844 4.38639,1.16356 8.02464,0.30096 16.0849,0.21791 24.09213,-0.41557 4.99345,-0.53186 9.90125,-1.65294 14.91905,-1.63956 9.56069,-0.34157 19.19523,0.33895 28.71906,-1.01676 4.28316,-0.25012 8.33094,-1.75476 12.12249,-3.67978 3.89903,-1.84564 7.9177,-3.57275 12.20342,-4.42118 1.43459,-0.98086 0.77607,-3.11901 1.11046,-4.58461 -0.0537,-1.92107 0.64822,-3.95907 0.0614,-5.81773 -0.70236,-0.51712 -1.60155,-1.05681 -1.51025,-2.12208 -0.76393,-2.15909 -2.9841,-3.38665 -4.24707,-5.24218 -3.00571,-3.82268 -5.92867,-7.7225 -9.40283,-11.14307 -1.11593,-1.0667 -1.83254,-2.58214 -3.146,-3.41504 -1.49328,-0.0545 -1.55767,2.00036 -2.17495,2.9821 -1.30708,2.82765 -2.5153,5.85058 -4.55796,8.22591 -1.68949,-0.36892 -2.74452,-2.15409 -3.96582,-3.23438 -5.48783,-6.2812 -11.18255,-12.688 -14.4866,-20.42296 -0.18789,-0.57545 -0.56965,-1.30108 -1.28928,-1.22791 z"
       id="path1289"
       inkscape:connector-curvature="0"
       transform="scale(0.26458333)" />
    <use
       height="100%"
       width="100%"
       transform="matrix(-1,0,0,1,361.24443,0)"
       id="use857"
       xlink:href="#g855"
       y="0"
       x="0" />
    <g
       style=""
       id="g1138">
      <path
         transform="scale(0.26458333)"
         inkscape:connector-curvature="0"
         id="path1134"
         d="m 625.24892,868.15534 c -11.42045,0.64413 -17.16166,12.40384 -25.67263,18.39239 -7.5446,8.00428 -19.79318,4.01974 -27.0051,-2.32403 -5.32259,-3.84252 -7.97001,3.88306 -9.44531,7.70508 -3.52846,8.36529 -11.11047,18.34834 -21.25586,16.78125 -5.64229,-1.58564 -2.13019,-11.51479 -8.89063,-11.22265 -5.5663,3.43809 -6.00898,11.41022 -8.81133,16.9084 -3.28724,10.87782 -8.5156,21.54877 -9.33711,32.96269 1.39887,7.14524 10.92978,5.64754 15.96485,3.62695 10.03198,-3.76669 10.6057,-17.8184 20.75586,-20.98047 7.19518,0.0182 6.79537,9.70085 6.39258,14.78516 -2.30662,17.29235 -20.2455,25.37556 -27.79883,39.83594 -2.23597,7.25213 6.1517,13.21927 3.60796,20.69345 -0.70786,10.6007 -2.13987,21.5575 -0.10015,32.039 4.28201,8.2037 15.03062,5.5426 22.375,4.3808 9.94872,-2.5838 8.68547,-15.0328 14.30859,-21.7871 6.21842,-8.6188 18.11629,-8.7402 26.81485,-13.5232 9.30836,-4.4819 20.1065,-6.7286 28.18906,-13.33224 2.47435,-5.17294 -3.127,-10.27207 -4.4668,-15.15821 -2.8332,-5.06696 -4.10142,-12.72168 2.15235,-15.89844 9.04504,-8.01924 21.49937,-13.20378 27.9082,-24.05273 1.866,-6.77261 2.14032,-14.63333 -0.27539,-21.30274 -4.58932,-6.37635 -14.05472,-3.31666 -20.24024,-7.23633 -5.37901,-1.80473 -6.03964,-8.02937 -3.77186,-12.54848 1.94765,-8.43759 6.73014,-17.31328 4.49647,-26.05699 -1.0659,-2.17715 -3.6381,-2.91814 -5.89453,-2.6875 z"
         style="opacity:1;fill:#ff7f2a;fill-opacity:1;fill-rule:nonzero;stroke:none;stroke-width:40;stroke-linecap:round;stroke-linejoin:miter;stroke-miterlimit:4;stroke-dasharray:none;stroke-dashoffset:0;stroke-opacity:1;paint-order:stroke markers fill" />
    </g>
  </g>
  <g
     inkscape:label="uv"
     inkscape:groupmode="layer"
     id="layer1"
     transform="translate(-21.973028,24.229349)"
     sodipodi:insensitive="true"
     style="display:none">
    <image
       sodipodi:absref="C:\Users\VG\apicklepse\art\uv cat.png"
       xlink:href="uv cat.png"
       width="361.24442"
       height="361.24442"
       preserveAspectRatio="none"
       id="image827"
       x="21.973028"
       y="-24.229349" />
    <use
       x="0"
       y="0"
       xlink:href="#image827"
       id="use831"
       transform="matrix(-1,0,0,1,405.19047,0)"
       width="100%"
       height="100%" />
  </g>
</svg>
